<svg width="220" height="123" viewBox="0 0 220 123" fill="none" xmlns="http://www.w3.org/2000/svg">
<path d="M27.5521 1.0459C42.8297 1.0459 49.5918 8.58323 49.5918 22.7375C49.5918 33.2007 45.1935 41.0868 34.6629 41.0868C28.6662 41.0868 24.5489 38.6454 19.8697 32.5031L11.8482 21.9722C10.1044 19.7439 6.82989 19.5986 4.65983 21.9722C2.7804 24.0648 3.12916 27.1359 4.94077 29.1607L13.5242 38.7907C16.3821 42.0653 17.5736 44.7198 17.5736 48.1397C17.5736 53.0225 14.5704 55.1151 9.2034 55.1151C4.38857 55.1151 0 53.5069 0 44.7198V14.648C0 6.83938 4.25294 1.0459 13.3207 1.0459H27.5521ZM12.691 18.6298L36.9008 30.9046C43.9438 34.4601 47.8577 29.9939 44.2248 24.8398L33.6263 9.62955C31.1172 6.07402 29.8578 5.72525 26.0892 7.25596L13.1851 12.5554C11.3735 13.3207 10.2594 14.0183 10.2594 15.4812C10.2594 16.6631 10.9569 17.7094 12.7007 18.6201L12.691 18.6298Z" fill="white"/>
<path d="M82.2396 37.8126C86.2116 37.7448 88.866 36.9794 89.2826 33.4142L92.2858 8.71928C92.7702 4.8828 90.8908 2.4414 87.9651 2.99362C85.0394 3.55553 82.5205 8.85491 81.4743 11.0154L73.0362 28.3183C70.808 32.9201 66.8941 33.8308 64.3172 33.8308C60.1999 33.8308 56.8576 30.4109 56.8576 26.09C56.8576 23.0867 58.9501 20.3644 62.1568 17.7873L76.175 6.62665C82.2396 1.81167 84.7584 0 89.2923 0C93.4774 0 96.3353 3.00331 97.246 7.74078L103.591 41.3003C105.054 49.1089 102.681 55.1155 95.5022 55.1155C89.7767 55.1155 87.0641 51.4922 87.0641 47.2294V43.6061C87.0641 39.7696 85.0394 39.2852 82.598 41.3778L75.7585 47.2391C72.5518 49.9615 67.3882 55.1252 61.6627 55.1252C57.6132 55.1252 53.0793 52.8195 53.0793 46.2703C53.0793 40.69 58.0976 38.3842 64.2397 38.2486L82.2396 37.832V37.8126Z" fill="white"/>
<path d="M153.455 55.1059C150.665 55.1059 146.964 53.7786 143.127 49.1089L125.893 28.2505C124.362 26.2935 123.665 24.8306 123.665 23.8521C123.732 22.0404 125.127 21.5463 127.714 21.8951L148.921 24.6174C156.38 25.5959 158.822 22.2439 158.822 18.6205C158.822 15.2006 156.167 12.5558 151.081 12.5558H129.245C122.056 12.5558 118.152 16.8088 118.152 21.7594C118.152 23.0867 118.501 24.4818 119.063 25.8091L126.174 42.5501C128.896 48.9636 128.053 55.1059 120.109 55.1059C115.788 55.1059 110.974 51.7538 110.974 41.7847C110.974 18.0683 120.952 0 142.159 0C159.393 0 163.501 10.8797 163.501 17.1576C163.501 21.9048 161.757 26.1578 151.924 29.6456L140.483 33.6952C138.807 34.2571 137.479 35.0903 137.479 36.7663C137.479 38.4423 138.594 38.9267 141.248 38.9267L154.985 39.0624C159.587 39.1302 163.075 41.9882 163.075 46.3188C163.075 50.6493 160.701 55.1059 153.445 55.1059H153.455Z" fill="white"/>
<path d="M198.231 37.8126C202.203 37.7448 204.858 36.9794 205.274 33.4142L208.278 8.71928C208.762 4.8828 206.882 2.4414 203.957 2.99362C201.031 3.55553 198.512 8.85491 197.466 11.0154L189.028 28.3183C186.8 32.9201 182.886 33.8308 180.309 33.8308C176.192 33.8308 172.849 30.4109 172.849 26.09C172.849 23.0867 174.942 20.3644 178.148 17.7873L192.167 6.62665C198.231 1.81167 200.75 0 205.284 0C209.469 0 212.327 3.00331 213.238 7.74078L219.583 41.3003C221.046 49.1089 218.673 55.1155 211.494 55.1155C205.768 55.1155 203.056 51.4922 203.056 47.2294V43.6061C203.056 39.7696 201.031 39.2852 198.59 41.3778L191.75 47.2391C188.543 49.9615 183.38 55.1252 177.654 55.1252C173.605 55.1252 169.071 52.8195 169.071 46.2703C169.071 40.69 174.089 38.3842 180.231 38.2486L198.231 37.832V37.8126Z" fill="white"/>
<path d="M12.7683 105.91C12.7683 102.073 14.299 97.6072 18.4841 97.6072C21.8361 97.6072 23.9286 100.465 23.9286 103.401V115.259C23.9286 118.611 26.0212 120.355 30.2063 118.33L54.6196 106.54C57.5453 105.145 60.0641 104.03 59.3666 101.444C58.6691 98.8667 56.5087 98.5179 54.1352 99.6321L39.3516 106.472C32.7252 109.543 28.1913 105.077 28.046 100.058L27.9781 97.4038C27.9103 94.8268 26.7962 94.478 24.0061 93.8483L19.6079 92.802C16.75 92.1044 14.8609 89.3142 14.8609 86.4563C14.8609 74.3171 27.2806 67.6904 39.5551 67.6904C51.8295 67.6904 63.5517 72.8542 63.5517 85.4099C63.5517 90.3606 61.6723 93.7805 57.555 93.7805C54.8327 93.7805 50.7154 91.1259 54.4839 85.4778L57.555 80.8759C58.3881 79.6165 58.1847 78.3667 57.4871 77.8726C56.3731 77.1072 54.9005 77.1751 52.6045 77.6595L22.5433 84.1505C19.5401 84.7802 18.8426 86.1075 19.0557 87.5704C19.2688 89.1011 20.1698 89.7308 22.4077 90.1474L57.9134 96.5609C61.8854 97.2585 63.8423 100.049 63.8423 103.401C63.8423 113.099 51.2191 122.864 35.244 122.864C19.2688 122.864 12.778 114.009 12.778 105.91H12.7683Z" fill="white"/>
<path d="M74.0728 79.3263L81.9587 70.2583C83.4215 68.5823 85.4463 67.8169 87.471 67.8169C91.0264 67.8169 94.4462 70.2583 94.4462 74.4435C94.4462 78.3478 92.0727 80.1595 88.7304 81.3512L81.0577 84.0057C80.1471 84.2866 79.7305 84.9164 79.7305 85.6139C79.7305 86.7959 80.9124 86.7959 81.5421 86.728L86.2891 86.1661C93.3321 85.333 95.7056 91.2621 91.1039 96.5615L77.7832 111.772C76.6691 113.031 76.3204 113.583 76.3204 114.281C76.3204 115.676 77.5023 116.858 78.8295 116.306L87.1998 112.682C90.1255 111.423 93.5453 111.849 93.9618 115.889C94.4462 120.559 88.8661 122.932 83.499 122.932C75.5454 122.932 71.8446 117.633 73.7337 110.658L79.3817 90.0123C79.5174 89.5279 79.5949 89.1016 79.5949 88.7529C79.5949 87.1446 78.3354 86.5924 76.1072 86.5924H73.104C71.3602 86.5924 70.7983 85.6139 70.7983 84.3642C70.7983 83.25 72.329 81.3608 74.0728 79.3457V79.3263Z" fill="white"/>
<path d="M124.721 77.3011C126.116 73.329 125.418 71.7208 123.539 71.7208C122.909 71.7208 122.144 72.0695 121.446 72.8349L113.638 81.5542C107.224 88.6652 96.8972 84.6253 96.8972 76.6036C96.8972 73.048 99.2029 68.8628 106.459 68.8628H130.32C142.943 68.8628 150.616 75.8382 150.616 85.536C150.616 89.8569 147.264 93.6934 142.808 93.8387C136.462 94.0518 134.437 89.4403 134.437 79.82V76.7489C134.437 73.6778 133.74 71.3817 131.366 71.3817C129.487 71.3817 128.712 73.1934 128.644 77.5918L127.879 111.704C127.743 119.096 126.348 122.932 119.644 122.932C112.185 122.932 110.644 117.565 113.502 109.96L124.73 77.3108L124.721 77.3011Z" fill="white"/>
<path d="M167.473 76.2548C163.423 75.906 161.612 77.7855 161.612 79.7425C161.612 81.6995 163.22 83.1624 167.473 83.7146L192.448 86.7857C197.747 87.4155 199.559 90.6222 199.559 93.9743C199.559 96.5513 198.58 99.8356 192.448 101.783L165.244 110.434C161.97 111.481 161.408 112.876 161.408 114.62C161.408 116.15 163.288 119.018 166.707 117.826L195.238 107.848C201.235 105.755 204.373 107.431 204.587 111.616C204.8 115.588 202.843 117.826 199.142 119.57C195.093 121.45 184.63 123.058 175.281 122.99C166 122.99 157.63 120.897 157.63 113.922C157.63 111.345 159.374 108.826 162.513 106.598L183.303 92.1529C186.093 90.196 184.698 87.6189 181.491 88.9462L167.54 94.6718C160.701 97.462 154.772 94.1099 154.772 87.7642C154.772 75.0631 169.982 67.8843 187.836 67.8843C200.324 67.8843 204.577 70.7423 204.577 75.1407C204.577 77.3689 203.395 79.4615 198.164 78.9771L167.473 76.2548Z" fill="white"/>
</svg>
