<?xml version="1.0" encoding="utf-8"?>
<!-- Generator: Adobe Illustrator 27.2.0, SVG Export Plug-In . SVG Version: 6.00 Build 0)  -->
<svg version="1.1" id="Ebene_1" shape-rendering="auto"
	 xmlns="http://www.w3.org/2000/svg" xmlns:xlink="http://www.w3.org/1999/xlink" x="0px" y="0px" viewBox="0 0 100 100"
	 style="enable-background:new 0 0 100 100;" xml:space="preserve">
<style type="text/css">
	.st0{fill:#FFFFFF;}
</style>
<g>
	<path class="st0" d="M59.6,13.2c0.9,0,1.6-0.7,1.6-1.6c0-0.9-0.7-1.6-1.6-1.6c-0.9,0-1.6,0.7-1.6,1.6C58,12.5,58.7,13.2,59.6,13.2z
		"/>
	<path class="st0" d="M53.2,16.4h1.6h1.6c0.9,0,1.6-0.7,1.6-1.6c0-0.9-0.7-1.6-1.6-1.6h-1.6h-1.6c-0.9,0-1.6,0.7-1.6,1.6
		C51.6,15.7,52.3,16.4,53.2,16.4z"/>
	<path class="st0" d="M59.6,16.4c-0.9,0-1.6,0.7-1.6,1.6v1.6v1.6c0,0.9,0.7,1.6,1.6,1.6c0.9,0,1.6,0.7,1.6,1.6
		c0,0.9,0.7,1.6,1.6,1.6c0.9,0,1.6-0.7,1.6-1.6v-1.6v-3.2v-3.2v-1.6c0-0.9-0.7-1.6-1.6-1.6c-0.9,0-1.6,0.7-1.6,1.6
		C61.2,15.7,60.5,16.4,59.6,16.4z"/>
	<path class="st0" d="M37.2,19.6c0.9,0,1.6-0.7,1.6-1.6s0.7-1.6,1.6-1.6H42h1.6c0.9,0,1.6-0.7,1.6-1.6v-1.6v-1.6
		c0-0.9-0.7-1.6-1.6-1.6c-0.9,0-1.6,0.7-1.6,1.6c0,0.9-0.7,1.6-1.6,1.6h-1.6h-1.6c-0.9,0-1.6,0.7-1.6,1.6v1.6V18
		C35.6,18.9,36.3,19.6,37.2,19.6z"/>
	<path class="st0" d="M59.6,26c-0.9,0-1.6,0.7-1.6,1.6c0,0.9,0.7,1.6,1.6,1.6c0.9,0,1.6-0.7,1.6-1.6C61.2,26.7,60.5,26,59.6,26z"/>
	<path class="st0" d="M50,32.4c0.9,0,1.6-0.7,1.6-1.6v-1.6v-1.6c0-0.9,0.7-1.6,1.6-1.6h1.6h1.6c0.9,0,1.6-0.7,1.6-1.6
		c0-0.9-0.7-1.6-1.6-1.6h-1.6h-1.6c-0.9,0-1.6-0.7-1.6-1.6c0-0.9-0.7-1.6-1.6-1.6s-1.6,0.7-1.6,1.6v1.6V26v3.2v1.6
		C48.4,31.7,49.1,32.4,50,32.4z"/>
	<path class="st0" d="M56.4,32.4c0.9,0,1.6-0.7,1.6-1.6c0-0.9-0.7-1.6-1.6-1.6c-0.9,0-1.6,0.7-1.6,1.6
		C54.8,31.7,55.5,32.4,56.4,32.4z"/>
	<path class="st0" d="M62.8,32.4c0.9,0,1.6-0.7,1.6-1.6c0-0.9-0.7-1.6-1.6-1.6c-0.9,0-1.6,0.7-1.6,1.6
		C61.2,31.7,61.9,32.4,62.8,32.4z"/>
	<path class="st0" d="M11.6,38.8h1.6h1.6c0.9,0,1.6-0.7,1.6-1.6c0-0.9-0.7-1.6-1.6-1.6h-1.6h-1.6c-0.9,0-1.6,0.7-1.6,1.6
		C10,38.1,10.7,38.8,11.6,38.8z"/>
	<path class="st0" d="M21.2,38.8c0.9,0,1.6-0.7,1.6-1.6c0-0.9-0.7-1.6-1.6-1.6c-0.9,0-1.6,0.7-1.6,1.6
		C19.6,38.1,20.3,38.8,21.2,38.8z"/>
	<path class="st0" d="M30.8,35.6c-0.9,0-1.6,0.7-1.6,1.6c0,0.9,0.7,1.6,1.6,1.6h1.6H34c0.9,0,1.6-0.7,1.6-1.6c0-0.9-0.7-1.6-1.6-1.6
		h-1.6H30.8z"/>
	<path class="st0" d="M56.4,38.8c0.9,0,1.6-0.7,1.6-1.6c0-0.9-0.7-1.6-1.6-1.6c-0.9,0-1.6,0.7-1.6,1.6
		C54.8,38.1,55.5,38.8,56.4,38.8z"/>
	<path class="st0" d="M83.6,35.6H82c-0.9,0-1.6,0.7-1.6,1.6c0,0.9,0.7,1.6,1.6,1.6s1.6,0.7,1.6,1.6c0,0.9,0.7,1.6,1.6,1.6
		c0.9,0,1.6-0.7,1.6-1.6v-1.6v-1.6c0-0.9-0.7-1.6-1.6-1.6H83.6"/>
	<path class="st0" d="M24.4,38.8c-0.9,0-1.6,0.7-1.6,1.6c0,0.9,0.7,1.6,1.6,1.6c0.9,0,1.6-0.7,1.6-1.6C26,39.5,25.3,38.8,24.4,38.8z
		"/>
	<path class="st0" d="M59.6,42h1.6h1.6c0.9,0,1.6-0.7,1.6-1.6v-1.6v-1.6c0-0.9-0.7-1.6-1.6-1.6c-0.9,0-1.6,0.7-1.6,1.6
		c0,0.9-0.7,1.6-1.6,1.6c-0.9,0-1.6,0.7-1.6,1.6C58,41.3,58.7,42,59.6,42z"/>
	<path class="st0" d="M18,45.2c0.9,0,1.6-0.7,1.6-1.6c0-0.9-0.7-1.6-1.6-1.6s-1.6,0.7-1.6,1.6C16.4,44.5,17.1,45.2,18,45.2z"/>
	<path class="st0" d="M62.8,45.2c-0.9,0-1.6,0.7-1.6,1.6v1.6V50c0,0.9,0.7,1.6,1.6,1.6c0.9,0,1.6-0.7,1.6-1.6s0.7-1.6,1.6-1.6
		s1.6,0.7,1.6,1.6s0.7,1.6,1.6,1.6c0.9,0,1.6,0.7,1.6,1.6c0,0.9,0.7,1.6,1.6,1.6c0.9,0,1.6,0.7,1.6,1.6c0,0.9,0.7,1.6,1.6,1.6h1.6
		h1.6c0.9,0,1.6-0.7,1.6-1.6c0-0.9-0.7-1.6-1.6-1.6c-0.9,0-1.6-0.7-1.6-1.6c0-0.9-0.7-1.6-1.6-1.6c-0.9,0-1.6-0.7-1.6-1.6
		s0.7-1.6,1.6-1.6c0.9,0,1.6-0.7,1.6-1.6c0-0.9-0.7-1.6-1.6-1.6c-0.9,0-1.6-0.7-1.6-1.6c0-0.9-0.7-1.6-1.6-1.6
		c-0.9,0-1.6-0.7-1.6-1.6c0-0.9,0.7-1.6,1.6-1.6c0.9,0,1.6,0.7,1.6,1.6c0,0.9,0.7,1.6,1.6,1.6c0.9,0,1.6-0.7,1.6-1.6v-1.6v-1.6
		c0-0.9-0.7-1.6-1.6-1.6H74h-3.2h-1.6c-0.9,0-1.6,0.7-1.6,1.6v1.6v1.6c0,0.9-0.7,1.6-1.6,1.6s-1.6,0.7-1.6,1.6
		C64.4,44.5,63.7,45.2,62.8,45.2z"/>
	<path class="st0" d="M78.8,42c-0.9,0-1.6,0.7-1.6,1.6c0,0.9,0.7,1.6,1.6,1.6h1.6H82c0.9,0,1.6-0.7,1.6-1.6c0-0.9-0.7-1.6-1.6-1.6
		h-1.6H78.8z"/>
	<path class="st0" d="M88.4,45.2c-0.9,0-1.6,0.7-1.6,1.6c0,0.9-0.7,1.6-1.6,1.6h-1.6H82c-0.9,0-1.6,0.7-1.6,1.6v1.6v1.6
		c0,0.9,0.7,1.6,1.6,1.6h1.6h1.6c0.9,0,1.6,0.7,1.6,1.6c0,0.9,0.7,1.6,1.6,1.6c0.9,0,1.6-0.7,1.6-1.6v-1.6v-3.2v-3.2v-1.6
		C90,45.9,89.3,45.2,88.4,45.2z"/>
	<path class="st0" d="M11.6,51.6c0.9,0,1.6,0.7,1.6,1.6c0,0.9,0.7,1.6,1.6,1.6c0.9,0,1.6-0.7,1.6-1.6v-1.6V50c0-0.9-0.7-1.6-1.6-1.6
		c-0.9,0-1.6-0.7-1.6-1.6v-1.6v-1.6c0-0.9-0.7-1.6-1.6-1.6c-0.9,0-1.6,0.7-1.6,1.6v1.6v3.2V50C10,50.9,10.7,51.6,11.6,51.6z"/>
	<path class="st0" d="M40.4,54.8c0.9,0,1.6-0.7,1.6-1.6c0-0.9-0.7-1.6-1.6-1.6c-0.9,0-1.6,0.7-1.6,1.6
		C38.8,54.1,39.5,54.8,40.4,54.8z"/>
	<path class="st0" d="M11.6,58c0.9,0,1.6-0.7,1.6-1.6c0-0.9-0.7-1.6-1.6-1.6c-0.9,0-1.6,0.7-1.6,1.6C10,57.3,10.7,58,11.6,58z"/>
	<path class="st0" d="M54.8,54.8h-1.6c-0.9,0-1.6,0.7-1.6,1.6c0,0.9,0.7,1.6,1.6,1.6h1.6H58h3.2h1.6c0.9,0,1.6-0.7,1.6-1.6
		c0-0.9-0.7-1.6-1.6-1.6h-1.6H58H54.8z"/>
	<path class="st0" d="M21.2,61.2c-0.9,0-1.6,0.7-1.6,1.6c0,0.9,0.7,1.6,1.6,1.6h1.6h1.6c0.9,0,1.6-0.7,1.6-1.6
		c0-0.9,0.7-1.6,1.6-1.6c0.9,0,1.6-0.7,1.6-1.6c0-0.9-0.7-1.6-1.6-1.6c-0.9,0-1.6-0.7-1.6-1.6c0-0.9-0.7-1.6-1.6-1.6
		c-0.9,0-1.6-0.7-1.6-1.6c0-0.9-0.7-1.6-1.6-1.6c-0.9,0-1.6,0.7-1.6,1.6c0,0.9-0.7,1.6-1.6,1.6s-1.6,0.7-1.6,1.6
		c0,0.9,0.7,1.6,1.6,1.6h1.6h1.6c0.9,0,1.6,0.7,1.6,1.6C22.8,60.5,22.1,61.2,21.2,61.2z"/>
	<path class="st0" d="M11.6,64.4h1.6h1.6c0.9,0,1.6-0.7,1.6-1.6v-1.6v-1.6c0-0.9-0.7-1.6-1.6-1.6c-0.9,0-1.6,0.7-1.6,1.6
		c0,0.9-0.7,1.6-1.6,1.6c-0.9,0-1.6,0.7-1.6,1.6C10,63.7,10.7,64.4,11.6,64.4z"/>
	<path class="st0" d="M35.6,67.6v1.6c0,0.9,0.7,1.6,1.6,1.6c0.9,0,1.6,0.7,1.6,1.6c0,0.9,0.7,1.6,1.6,1.6c0.9,0,1.6-0.7,1.6-1.6
		v-1.6v-1.6c0-0.9,0.7-1.6,1.6-1.6c0.9,0,1.6-0.7,1.6-1.6v-1.6v-1.6c0-0.9,0.7-1.6,1.6-1.6c0.9,0,1.6-0.7,1.6-1.6V58v-3.2v-3.2V50
		c0-0.9,0.7-1.6,1.6-1.6h1.6h3.2h1.6c0.9,0,1.6-0.7,1.6-1.6c0-0.9-0.7-1.6-1.6-1.6h-1.6h-1.6c-0.9,0-1.6-0.7-1.6-1.6
		c0-0.9,0.7-1.6,1.6-1.6c0.9,0,1.6-0.7,1.6-1.6c0-0.9-0.7-1.6-1.6-1.6c-0.9,0-1.6-0.7-1.6-1.6c0-0.9-0.7-1.6-1.6-1.6
		s-1.6-0.7-1.6-1.6s-0.7-1.6-1.6-1.6c-0.9,0-1.6-0.7-1.6-1.6v-1.6V26v-1.6c0-0.9-0.7-1.6-1.6-1.6c-0.9,0-1.6-0.7-1.6-1.6
		c0-0.9-0.7-1.6-1.6-1.6c-0.9,0-1.6,0.7-1.6,1.6c0,0.9-0.7,1.6-1.6,1.6c-0.9,0-1.6,0.7-1.6,1.6V26v3.2v3.2V34c0,0.9,0.7,1.6,1.6,1.6
		c0.9,0,1.6-0.7,1.6-1.6v-1.6v-3.2v-1.6c0-0.9,0.7-1.6,1.6-1.6c0.9,0,1.6,0.7,1.6,1.6v1.6v3.2V34c0,0.9,0.7,1.6,1.6,1.6
		c0.9,0,1.6,0.7,1.6,1.6v1.6V42v1.6c0,0.9-0.7,1.6-1.6,1.6H42h-1.6c-0.9,0-1.6-0.7-1.6-1.6c0-0.9,0.7-1.6,1.6-1.6
		c0.9,0,1.6-0.7,1.6-1.6c0-0.9-0.7-1.6-1.6-1.6h-1.6h-1.6c-0.9,0-1.6,0.7-1.6,1.6c0,0.9-0.7,1.6-1.6,1.6h-1.6h-3.2h-1.6
		c-0.9,0-1.6,0.7-1.6,1.6v1.6v1.6c0,0.9,0.7,1.6,1.6,1.6c0.9,0,1.6-0.7,1.6-1.6c0-0.9,0.7-1.6,1.6-1.6c0.9,0,1.6,0.7,1.6,1.6
		c0,0.9-0.7,1.6-1.6,1.6c-0.9,0-1.6,0.7-1.6,1.6s0.7,1.6,1.6,1.6c0.9,0,1.6,0.7,1.6,1.6c0,0.9-0.7,1.6-1.6,1.6
		c-0.9,0-1.6,0.7-1.6,1.6c0,0.9,0.7,1.6,1.6,1.6c0.9,0,1.6,0.7,1.6,1.6c0,0.9-0.7,1.6-1.6,1.6c-0.9,0-1.6,0.7-1.6,1.6
		c0,0.9,0.7,1.6,1.6,1.6h1.6H34c0.9,0,1.6-0.7,1.6-1.6c0-0.9,0.7-1.6,1.6-1.6c0.9,0,1.6,0.7,1.6,1.6c0,0.9-0.7,1.6-1.6,1.6
		c-0.9,0-1.6,0.7-1.6,1.6V67.6 M43.6,54.8c-0.9,0-1.6,0.7-1.6,1.6c0,0.9-0.7,1.6-1.6,1.6h-1.6h-1.6c-0.9,0-1.6-0.7-1.6-1.6v-1.6
		v-3.2V50c0-0.9,0.7-1.6,1.6-1.6h1.6h1.6c0.9,0,1.6,0.7,1.6,1.6s0.7,1.6,1.6,1.6c0.9,0,1.6,0.7,1.6,1.6
		C45.2,54.1,44.5,54.8,43.6,54.8z"/>
	<path class="st0" d="M88.4,61.2c-0.9,0-1.6,0.7-1.6,1.6c0,0.9,0.7,1.6,1.6,1.6c0.9,0,1.6-0.7,1.6-1.6C90,61.9,89.3,61.2,88.4,61.2z
		"/>
	<path class="st0" d="M69.2,67.6c-0.9,0-1.6,0.7-1.6,1.6c0,0.9,0.7,1.6,1.6,1.6c0.9,0,1.6-0.7,1.6-1.6
		C70.8,68.3,70.1,67.6,69.2,67.6z"/>
	<path class="st0" d="M88.4,67.6h-1.6h-1.6c-0.9,0-1.6,0.7-1.6,1.6c0,0.9-0.7,1.6-1.6,1.6s-1.6-0.7-1.6-1.6c0-0.9-0.7-1.6-1.6-1.6
		c-0.9,0-1.6-0.7-1.6-1.6v-1.6v-1.6c0-0.9-0.7-1.6-1.6-1.6c-0.9,0-1.6-0.7-1.6-1.6c0-0.9-0.7-1.6-1.6-1.6c-0.9,0-1.6-0.7-1.6-1.6
		c0-0.9-0.7-1.6-1.6-1.6s-1.6,0.7-1.6,1.6V58h0v1.6c0,0.9-0.7,1.6-1.6,1.6h-1.6h-1.6c-0.9,0-1.6,0.7-1.6,1.6v1.6V66
		c0,0.9-0.7,1.6-1.6,1.6c-0.9,0-1.6,0.7-1.6,1.6c0,0.9,0.7,1.6,1.6,1.6c0.9,0,1.6,0.7,1.6,1.6c0,0.9-0.7,1.6-1.6,1.6
		c-0.9,0-1.6,0.7-1.6,1.6c0,0.9-0.7,1.6-1.6,1.6c-0.9,0-1.6-0.7-1.6-1.6c0-0.9-0.7-1.6-1.6-1.6c-0.9,0-1.6-0.7-1.6-1.6v-1.6v-1.6
		c0-0.9,0.7-1.6,1.6-1.6h1.6h1.6c0.9,0,1.6-0.7,1.6-1.6s-0.7-1.6-1.6-1.6c-0.9,0-1.6-0.7-1.6-1.6c0-0.9-0.7-1.6-1.6-1.6h-1.6H50
		c-0.9,0-1.6,0.7-1.6,1.6v1.6V66c0,0.9-0.7,1.6-1.6,1.6c-0.9,0-1.6,0.7-1.6,1.6c0,0.9,0.7,1.6,1.6,1.6c0.9,0,1.6,0.7,1.6,1.6V74v1.6
		c0,0.9,0.7,1.6,1.6,1.6s1.6,0.7,1.6,1.6c0,0.9-0.7,1.6-1.6,1.6s-1.6,0.7-1.6,1.6s0.7,1.6,1.6,1.6s1.6,0.7,1.6,1.6
		c0,0.9-0.7,1.6-1.6,1.6s-1.6,0.7-1.6,1.6c0,0.9,0.7,1.6,1.6,1.6h1.6h3.2h1.6c0.9,0,1.6-0.7,1.6-1.6c0-0.9-0.7-1.6-1.6-1.6
		c-0.9,0-1.6-0.7-1.6-1.6v-1.6V82c0-0.9,0.7-1.6,1.6-1.6c0.9,0,1.6,0.7,1.6,1.6s0.7,1.6,1.6,1.6c0.9,0,1.6-0.7,1.6-1.6
		s0.7-1.6,1.6-1.6h1.6H66c0.9,0,1.6-0.7,1.6-1.6c0-0.9,0.7-1.6,1.6-1.6c0.9,0,1.6,0.7,1.6,1.6v1.6V82c0,0.9,0.7,1.6,1.6,1.6
		c0.9,0,1.6-0.7,1.6-1.6s0.7-1.6,1.6-1.6c0.9,0,1.6-0.7,1.6-1.6v-1.6v-1.6c0-0.9,0.7-1.6,1.6-1.6c0.9,0,1.6,0.7,1.6,1.6
		c0,0.9,0.7,1.6,1.6,1.6h1.6h1.6c0.9,0,1.6-0.7,1.6-1.6c0-0.9,0.7-1.6,1.6-1.6c0.9,0,1.6-0.7,1.6-1.6v-1.6v-1.6
		C90,68.3,89.3,67.6,88.4,67.6z M67.6,74H66c-0.9,0-1.6-0.7-1.6-1.6v-1.6v-3.2V66c0-0.9,0.7-1.6,1.6-1.6h1.6h3.2h1.6
		c0.9,0,1.6,0.7,1.6,1.6v1.6v3.2v1.6c0,0.9-0.7,1.6-1.6,1.6h-1.6H67.6z"/>
	<path class="st0" d="M56.4,70.8c-0.9,0-1.6,0.7-1.6,1.6c0,0.9,0.7,1.6,1.6,1.6c0.9,0,1.6-0.7,1.6-1.6C58,71.5,57.3,70.8,56.4,70.8z
		"/>
	<path class="st0" d="M43.6,74c-0.9,0-1.6,0.7-1.6,1.6c0,0.9,0.7,1.6,1.6,1.6c0.9,0,1.6-0.7,1.6-1.6C45.2,74.7,44.5,74,43.6,74z"/>
	<path class="st0" d="M40.4,77.2h-1.6h-1.6c-0.9,0-1.6,0.7-1.6,1.6c0,0.9,0.7,1.6,1.6,1.6h1.6h1.6c0.9,0,1.6-0.7,1.6-1.6
		C42,77.9,41.3,77.2,40.4,77.2z"/>
	<path class="st0" d="M46.8,77.2c-0.9,0-1.6,0.7-1.6,1.6c0,0.9,0.7,1.6,1.6,1.6c0.9,0,1.6-0.7,1.6-1.6
		C48.4,77.9,47.7,77.2,46.8,77.2z"/>
	<path class="st0" d="M43.6,80.4c-0.9,0-1.6,0.7-1.6,1.6s0.7,1.6,1.6,1.6c0.9,0,1.6-0.7,1.6-1.6S44.5,80.4,43.6,80.4z"/>
	<path class="st0" d="M82,80.4h-1.6h-1.6c-0.9,0-1.6,0.7-1.6,1.6v1.6v1.6c0,0.9-0.7,1.6-1.6,1.6c-0.9,0-1.6,0.7-1.6,1.6
		c0,0.9,0.7,1.6,1.6,1.6h1.6h1.6c0.9,0,1.6-0.7,1.6-1.6v-1.6v-1.6c0-0.9,0.7-1.6,1.6-1.6s1.6-0.7,1.6-1.6S82.9,80.4,82,80.4z"/>
	<path class="st0" d="M88.4,80.4c-0.9,0-1.6,0.7-1.6,1.6s-0.7,1.6-1.6,1.6c-0.9,0-1.6,0.7-1.6,1.6v1.6v1.6c0,0.9,0.7,1.6,1.6,1.6
		h1.6h1.6c0.9,0,1.6-0.7,1.6-1.6v-1.6v-3.2V82C90,81.1,89.3,80.4,88.4,80.4z"/>
	<path class="st0" d="M40.4,83.6h-1.6v0h-1.6c-0.9,0-1.6,0.7-1.6,1.6v1.6v1.6c0,0.9,0.7,1.6,1.6,1.6c0.9,0,1.6-0.7,1.6-1.6
		c0-0.9,0.7-1.6,1.6-1.6c0.9,0,1.6-0.7,1.6-1.6S41.3,83.6,40.4,83.6z"/>
	<path class="st0" d="M66,83.6h-1.6v0h-1.6c-0.9,0-1.6,0.7-1.6,1.6v1.6v1.6c0,0.9,0.7,1.6,1.6,1.6c0.9,0,1.6-0.7,1.6-1.6
		c0-0.9,0.7-1.6,1.6-1.6s1.6-0.7,1.6-1.6S66.9,83.6,66,83.6z"/>
	<path class="st0" d="M43.6,86.8c-0.9,0-1.6,0.7-1.6,1.6c0,0.9,0.7,1.6,1.6,1.6c0.9,0,1.6-0.7,1.6-1.6
		C45.2,87.5,44.5,86.8,43.6,86.8z"/>
	<path class="st0" d="M10.7,32.4h21c0.4,0,0.7-0.3,0.7-0.7v-2.5V26v-3.2v-3.2v-3.2v-3.2v-2.5c0-0.4-0.3-0.7-0.7-0.7h-21
		c-0.4,0-0.7,0.3-0.7,0.7v2.5v3.2v3.2v3.2V26v3.2v2.5C10,32.1,10.3,32.4,10.7,32.4z M13.2,26v-3.2v-3.2v-3.2v-2.8
		c0-0.2,0.2-0.4,0.4-0.4h15.2c0.2,0,0.4,0.2,0.4,0.4v2.8v3.2v3.2V26v2.8c0,0.2-0.2,0.4-0.4,0.4H13.6c-0.2,0-0.4-0.2-0.4-0.4V26z"/>
	<path class="st0" d="M17.1,26h8.2c0.4,0,0.7-0.3,0.7-0.7v-2.5v-3.2v-2.5c0-0.4-0.3-0.7-0.7-0.7h-8.2c-0.4,0-0.7,0.3-0.7,0.7v2.5
		v3.2v2.5C16.4,25.7,16.7,26,17.1,26z"/>
	<path class="st0" d="M89.3,10h-21c-0.4,0-0.7,0.3-0.7,0.7v2.5v3.2v3.2v3.2V26v3.2v2.5c0,0.4,0.3,0.7,0.7,0.7h21
		c0.4,0,0.7-0.3,0.7-0.7v-2.5V26v-3.2v-3.2v-3.2v-3.2v-2.5C90,10.3,89.7,10,89.3,10z M86.8,16.4v3.2v3.2V26v2.8
		c0,0.2-0.2,0.4-0.4,0.4H71.2c-0.2,0-0.4-0.2-0.4-0.4V26v-3.2v-3.2v-3.2v-2.8c0-0.2,0.2-0.4,0.4-0.4h15.2c0.2,0,0.4,0.2,0.4,0.4
		V16.4z"/>
	<path class="st0" d="M82.9,16.4h-8.2c-0.4,0-0.7,0.3-0.7,0.7v2.5v3.2v2.5c0,0.4,0.3,0.7,0.7,0.7h8.2c0.4,0,0.7-0.3,0.7-0.7v-2.5
		v-3.2v-2.5C83.6,16.7,83.3,16.4,82.9,16.4z"/>
	<path class="st0" d="M31.7,67.6c0,0-21,0-21,0c-0.4,0-0.7,0.3-0.7,0.7v2.5V74v3.2v3.2v3.2v3.2v2.5c0,0.4,0.3,0.7,0.7,0.7h21
		c0.4,0,0.7-0.3,0.7-0.7v-2.5v-3.2v-3.2v-3.2V74v-3.2v-2.5C32.4,67.9,32.1,67.6,31.7,67.6z M29.2,74v3.2v3.2v3.2v2.8
		c0,0.2-0.2,0.4-0.4,0.4H13.6c-0.2,0-0.4-0.2-0.4-0.4v-2.8v-3.2v-3.2V74v-2.8c0-0.2,0.2-0.4,0.4-0.4h15.2c0.2,0,0.4,0.2,0.4,0.4V74z
		"/>
	<path class="st0" d="M25.3,74h-8.2c-0.4,0-0.7,0.3-0.7,0.7v2.5v3.2v2.5c0,0.4,0.3,0.7,0.7,0.7h8.2c0.4,0,0.7-0.3,0.7-0.7v-2.5v-3.2
		v-2.5C26,74.3,25.7,74,25.3,74z"/>
</g>
</svg>
