<?xml version="1.0" encoding="UTF-8"?>
<svg id="Livello_2" data-name="Livello 2" xmlns="http://www.w3.org/2000/svg" viewBox="0 0 201.89 235.06">
  <defs>
    <style>
      .cls-1 {
        fill: none;
        stroke: #fff;
        stroke-miterlimit: 10;
        stroke-width: .5px;
      }
    </style>
  </defs>
  <g id="Livello_1-2" data-name="Livello 1">
    <g>
      <path class="cls-1" d="m2.12,128.43c8.76,22.02,21.48,43.12,32.16,64.29,5.17,10.26,9.52,23.54,17.02,32.29,9.38,10.95,28.28,10.77,39.85,3.26,12.22-7.93,17.78-24.06,24.05-36.55v.03c-10.46,20.82-28.48,56.1-58.23,38.13-10.47-6.33-15.26-22.33-20.56-32.83s-11.02-21.86-16.53-32.78c-5.95-11.8-12.92-23.53-17.8-35.82h.04Z"/>
      <path class="cls-1" d="m90.41,134.52c3.37-7.44-3.1-12.59-10.03-12.72s-12.51,4.54-17.62,8.67c-5.54,4.48-23.13,24.09-30.38,20.37-9.28-4.76,9.76-22.83,12.75-28.79,8.73-17.36-9.73-25.75-24.73-21.87-12.47,3.22-23.98,14.63-18.27,28.24h-.04c-13.69-32.66,54.34-39.28,44.6-9.72-2.5,7.57-20.15,22.13-17.08,29.53,4.34,10.47,23.97-10.1,28.54-13.9,5.71-4.75,11.88-11.23,19.59-12.34s16.64,3.79,12.68,12.54h0Z"/>
      <path class="cls-1" d="m112.54,141.07c-3.97,12.07-7.93,24.13-11.9,36.2-3.75,11.41-5.98,25.63-12.29,35.88-5.88,9.55-25.09,14.73-26.93-.69-1.28-10.69,8.22-26.05,11.99-35.84,5.45-14.14,11.27-28.07,16.99-42.08-5.1,12.45-10.33,24.79-15.18,37.36-4.33,11.24-10.92,23.33-13.2,35.17-2.95,15.34,14.14,20.1,23.73,9.77,7.88-8.49,9.77-23.97,13.29-34.68,4.5-13.69,9-27.38,13.51-41.08h0Z"/>
      <path class="cls-1" d="m201.55,18.96l.03-.65.04-.04c-.41,12.41-12.76,26.98-18.36,38.12s-11.02,21.92-16.53,32.89c-10.98,21.84-21.96,43.68-32.94,65.52-6.19,12.32-12.39,24.64-18.58,36.96v-.03c10.97-21.83,21.94-43.66,32.92-65.49s21.86-43.49,32.8-65.23c3.07-6.11,5.99-12.32,9.22-18.35,4.01-7.47,10.76-14.91,11.4-23.69h0Z"/>
      <path class="cls-1" d="m201.58,18.3c-.62-17.42-21.01-20.99-34.24-15.34-12,5.12-14.64,15.97-18.38,27.35-7.76,23.59-15.51,47.18-23.27,70.77-4.38,13.33-8.76,26.65-13.14,39.98h0c7.76-23.59,15.52-47.19,23.28-70.79,3.88-11.8,7.76-23.6,11.64-35.4,3.57-10.86,5.62-23.58,16.08-30.03,13.21-8.15,37.39-5.78,38.08,13.42l-.04.04h0Z"/>
      <path class="cls-1" d="m201.62,18.26c-.73-20.6-28.15-21.87-40.9-11.44-10.54,8.62-13.01,27.29-17.08,39.68-9.54,29.01-19.07,58.01-28.61,87.02-4.8,14.59-9.6,29.19-14.39,43.78-3.98,12.1-6.28,32.26-16.27,40.95-5.17,4.49-14.83,6.35-20.07.93-5.79-5.98-1.52-14.79.92-21.27,5.3-14.08,10.81-28.08,16.21-42.11,2.7-7.02,9.41-16.5,9.76-23.95.53-11.2-12.27-11.37-19.73-7.67-6.25,3.1-35.1,33.95-41.28,25.16-8.1-11.5,28.03-27.31,14.62-43.97-10.74-13.34-38.29-5.01-43.35,10.18-4.3,12.9,9.38,30.74,15,41.89,6.83,13.53,13.65,27.07,20.48,40.6,7.93,15.72,13.73,35.5,34.75,35.49,17.77-.02,27.91-11.07,35.59-25.98,14.02-27.22,27.52-54.73,41.27-82.09,13.75-27.34,26.96-55.03,41.27-82.09,4.15-7.85,11.51-15.86,11.82-25.11h0Z"/>
      <path class="cls-1" d="m201.55,17.46c.34,9.57-7.68,18.17-11.92,26.2-3.59,6.81-6.92,13.76-10.38,20.64-6.83,13.59-13.67,27.18-20.5,40.77-13.75,27.35-27.5,54.7-41.25,82.05-6.83,13.59-12.86,32.03-25.94,40.86-15.19,10.25-35.72,6.17-44.45-9.81-14.48-26.52-27.41-54.09-40.92-81.12-7.56-15.13-6.82-29.38,11.1-35.92,8.68-3.17,21.56-3.59,27.76,4.52s.69,16.08-3.96,22.86c-3,4.37-15,15-10.9,20.81,5.14,7.3,16.75-5.72,20.8-9.07,5.84-4.84,41.4-33.96,40.19-8.42-.35,7.45-7.05,16.92-9.75,23.94s-5.48,14.24-8.23,21.35c-3.72,9.65-17.87,33.11-8.74,42.17,23.19,23.01,39.66-52.66,43.45-64.19,9.53-28.99,19.06-57.98,28.6-86.98C144.2,44.78,148.52.03,180.51.25c10.39.07,20.03,6.33,21.05,17.21h0Z"/>
      <path class="cls-1" d="m153.29,76.23l-.12-.45c-.47-.72-.91-1.47-1.3-2.24l-.18-.19c.26-1.8.3-3.61.11-5.42,3.1-13.22,5.29-48.24,23.85-49.38,1.02.2,2.03.43,3.03.69.8.61,1.59,1.22,2.37,1.85.54,1.14,1,2.33,1.36,3.53.09,15.17-15.37,43.75-28.67,51.41l-.45.19h0Z"/>
      <path class="cls-1" d="m51.27,185.58l-1.03.03c-.9-.27-1.8-.53-2.7-.77-16.69-11.58-4.94-25.91,9.07-31.18,1.17-.11,2.32-.31,3.46-.6.92.33,1.85.62,2.79.86.66.95,1.24,1.95,1.72,3,.8,9.06-3.18,22.1-10.73,27.7-.87.3-1.73.62-2.58.97h0Z"/>
      <path class="cls-1" d="m143.73,101.92l-.9.56-.48-1.04-1.37-1.46c.27-1.76.29-3.55.06-5.32,5.19-23.02,7.87-50.28,20.14-71.05,9.07-15.35,31.57-12.9,24.96,7.28-3.85,11.77-10.8,22.96-16.82,33.71-6.98,12.45-14.18,28.38-25.6,37.33h0Z"/>
      <path class="cls-1" d="m44.86,189.89c-5.73-5.93-13.14-17.74-10.04-26.34,4.92-7.32,17.38-13.21,25.28-16.94,1.26-.33,2.5-.72,3.71-1.18,1.07.08,2.14.07,3.22-.01.81.54,1.62,1.1,2.42,1.66.47,1.35.85,2.72,1.15,4.12-.67,12.86-5.54,30.4-15.02,39.62-.73.46-1.45.95-2.15,1.46l-2.63.71h-.16s-2.5-.76-2.5-.76c-1.19-.65-2.28-1.43-3.27-2.35h0Z"/>
      <path class="cls-1" d="m131.03,125.46c.27-1.72.25-3.46-.05-5.17,7.96-31.27,13.11-64.1,26.06-94.07,10.26-23.75,43.32-20.1,30.6,7.93-7.1,15.64-15.42,30.86-23.74,45.88-8.51,15.34-17.22,34.48-30.16,46.64l-1.27-.35-1.44-.86h0Z"/>
      <path class="cls-1" d="m22.01,134.63l-3.02-.02c-.79-.46-1.55-.99-2.27-1.55-10.05-10.99,3.91-30.66,15.14-19.67,5.54,7.09-3.52,17.56-9.46,21.13l-.39.12h0Z"/>
      <path class="cls-1" d="m45.24,195.55c-6.75-7.29-17.89-23.53-14.33-33.95l.78-1.14c4.89-4.5,12.56-7.33,18.16-11.16s10.79-7.49,16.91-9.76c1.17-.11,2.33-.31,3.47-.6.93.32,1.88.59,2.84.81.68.9,1.29,1.84,1.81,2.84,1.97,16.19-8.39,40.79-18.42,53.2-.68.51-1.3,1.09-1.86,1.74-.78.4-1.57.8-2.34,1.22l-.1.02c-.99-.13-1.97-.24-2.96-.34-1.49-.7-2.82-1.67-3.96-2.88h0Z"/>
      <path class="cls-1" d="m121.61,150.11l.16-1.38c-.15-.69-.19-1.39-.11-2.09l-.37-1.27c.57-2.15.89-4.35.94-6.57,11.05-36.98,18.47-75.23,32.46-111.46,4.32-11.18,11.46-21.66,25.05-20.87,15.9.93,16.13,14.97,10.73,26.24-8.76,18.27-18.3,36.26-27.94,54.08-10.99,20.31-21.33,42.18-35.56,60.44-.55.49-1.1.99-1.63,1.5-.72.26-1.37.63-1.96,1.12l-1.75.25h0Z"/>
      <path class="cls-1" d="m20.39,141.26c-.82-.36-1.67-.63-2.54-.83-.65-.53-1.31-1.06-1.96-1.58-10.86-11.8-8.39-33.5,11.47-31.94,21.83,1.72,3.58,25.78-4.06,33.01-.77.33-1.5.75-2.16,1.25l-.75.09h0Z"/>
      <path class="cls-1" d="m46.53,201.29c-8.77-9.31-20.83-28.07-19.41-41.31l1.49-2.41c.72-.34,1.46-.64,2.22-.88l.3.02c14.67-2.78,24.69-16,38.08-21.94,1.21-.26,2.41-.58,3.59-.94,1.03.11,2.06.2,3.09.27.81.57,1.59,1.19,2.32,1.85,3.94,9.66-4,25.95-7.38,35.11-3.81,10.33-7.88,22.91-15.42,31.16-.66.54-1.36,1.04-2.08,1.49l-2.81.23c-.76-.26-1.51-.65-2.18-1.12-.56-.56-1.16-1.07-1.81-1.53h0Z"/>
      <path class="cls-1" d="m112.92,173.74v-1.19c-.35-.69-.62-1.42-.79-2.18l-.25-.32c.61-2.11.89-4.28.86-6.47,7.2-22.72,12.34-46.46,19.22-69.42s13.36-44.94,21.3-66.92c4.79-13.25,14.3-25.76,30.43-22.32,19.89,4.23,10.94,22.81,4.82,34.45-11.6,22.06-22.6,44.43-34.35,66.42-10.86,20.32-20.89,42.34-34.7,60.84-1.7,2.28-3.43,4.41-5.49,6.38l-1.04.73h0Z"/>
      <path class="cls-1" d="m21.14,148.49l-.79-.56-.12-.16-1.56-1.2c-9.06-9.23-19.07-26.42-6.49-37.02s35.32-3.87,26.17,14.57c-3.59,7.23-9.6,13.13-13.88,19.94l-.08.46-1.05,1.28-.06,1.17-1.69.67-.46.85h0Z"/>
      <path class="cls-1" d="m44.85,203.18c-8.11-11.31-25.2-35.43-20.52-50.07l.97.6c.73-.02,1.46-.02,2.18,0l.09-.04,1.44.71,1.29-.11.6.25c16.94.39,27.73-20.99,43.94-24.6,1.05.01,2.11.02,3.16.04.87.4,1.74.82,2.6,1.25.7.87,1.29,1.82,1.75,2.84,1.18,11.21-5.64,24.8-9.46,35.14-4.44,12.03-9.14,24.14-15.5,35.27-.62.63-1.09,1.37-1.39,2.2l-.95.76-.79,1.14-2.45.63-.51-.07-1.65-.94c-1.77-1.49-3.37-3.16-4.8-4.99h0Z"/>
      <path class="cls-1" d="m102.86,194.04c.31-1.33.56-2.63.76-3.97l-.17-2.06c8.42-25.09,13.89-51.7,21.86-77.14,8.13-25.96,16.33-51.92,24.89-77.76,4.61-13.92,9.34-27.77,26.02-29.83,22.04-2.73,24.31,16.28,16.06,31.46-13.37,24.61-25.45,49.93-38.53,74.71s-25.74,51.35-41.08,75.43c-2.04,3.2-4.09,6.37-6.44,9.35l-.27.17-3.09-.36h0Z"/>
      <path class="cls-1" d="m41.21,200.53c-10.86-18.63-17.19-39.45-28.34-57.61-6.13-9.98-13.44-22.67-3.78-32.91,7.25-7.68,25.67-12.01,32.48-1.4,7.91,12.33-10.5,25.04-14.53,35.16-.23.56-.48,1.13-.76,1.67l.09,1.24-.15.36.08.31-.14,1.32c.36.88.82,1.7,1.39,2.46.47.28.9.61,1.29,1l.85.16.64.52c.59.03,1.17.15,1.72.35,17.39,2.86,28.88-27.61,47.45-26.07.91.28,1.81.56,2.72.85.77.6,1.49,1.27,2.14,2,4.51,8.84-6.59,29.22-9.83,37.97-4.8,12.96-10.42,25.56-15.74,38.25l-.52.87-.45,1.74-.06.07c-.27.62-.58,1.25-.91,1.85l-.06.8-.88,1.09-.37,1.6c-.99.2-1.98.42-2.95.68-4.95-3.71-8.18-9.14-11.39-14.33h0Z"/>
      <path class="cls-1" d="m94.62,212.41c.98-2.64,1.65-5.34,1.67-8.15,9.27-28.19,16.29-57.38,25.55-85.73s17.9-56.3,27.19-84.34c5.4-16.3,11.72-33.64,32.59-32.16,9.57.68,18.21,7.23,17.83,17.47-.27,7.32-5.63,13.74-9.01,19.91-15,27.46-28.19,56-42.65,83.75-14.2,27.23-27.14,55.83-43.8,81.64-2.13,3.3-4.39,6.43-7.02,9.37-.78-.58-1.56-1.17-2.34-1.76h0Z"/>
      <path class="cls-1" d="m42.74,205.35c-12.26-20.54-20.77-42.94-32.24-63.83-6.01-10.93-12.43-23.63-1.12-33.63,8.02-7.09,25.45-10.68,33.02-1.05,9.64,12.25-9.14,26.52-14.16,36.7-.09.55-.22,1.12-.38,1.65v.17s-.44,1.48-.44,1.48c.18.53.34,1.08.48,1.63.63,1.54,1.7,2.76,3.14,3.57.64.05,1.25.2,1.85.44,1.71.16,3.41-.06,5.03-.63,10.55-6.04,34.5-35.55,47.68-24.62.66.8,1.23,1.69,1.68,2.62,2.15,11.56-9.12,30.77-13.26,41.66-4.72,12.43-10.07,24.66-14.68,37.07-.04.6-.11,1.21-.23,1.79v.13s-.53,1.71-.53,1.71c.08.59.14,1.19.18,1.78l.03.11-.29,1.81c.25,1.78.7,3.51,1.35,5.18l-.32.88-1.67,1.49c-7.12-3.78-11.23-11.31-15.13-18.12h0Z"/>
      <path class="cls-1" d="m41.59,205.01c-11.55-21.34-21.53-43.46-32.74-64.97-6.43-12.33-11.53-25.12,2.34-34.61,9.42-6.45,31.1-9.14,34.72,5.56s-15.2,23.28-17.56,35.7c.19.65.34,1.32.46,2,1.77,3.15,5.62,4.07,8.9,2.72,11.13-6.09,33.59-35.86,47.75-26.43,10.2,6.8-10.25,44.92-14.07,54.85s-8.75,19.98-11.37,30.38c.14,1.22.1,2.43-.12,3.63.55,2.69,1.67,5.29,3.39,7.41l.92,1.36,1.39.54.23.4.48.12,1.12.97,1.7.26.24.11,1.37.1.56.36c.9.16,1.81.29,2.71.41l1.66-.29.43.06.71-.49,1.19-.06.19-.09,1.83-.16.87-.69.91-.08.53-.83,1.04-.3.88-1.03.62-.2.22-.46,1.32-.73.74-1.23.51-.41c8.32-12.91,11.08-30.14,15.58-44.72s9.64-30.12,14.4-45.2c9.4-29.76,19.11-59.46,28.93-89.1,5.42-16.36,8.57-34.79,28.48-38.17,9.2-1.56,20.04,1.06,24.04,10.42,4.05,9.48-2.57,17.84-7.07,25.69-16.35,28.56-30.01,59.02-44.89,88.38-14.73,29.08-27.81,62.19-46.78,88.72-2.64,3.7-5.62,6.46-8.8,9.63l-.15.06-.09.09-1.84.77-1.46,1.22c-.11.03-.22.08-.31.16l-1.95.4-1.23.75-.71-.06-1,.63c-.42-.02-.81.05-1.17.22l-1.89.08-.71.24h-1.43s-1.09.33-1.09.33c-2.5.41-5.17.73-7.71.73l-1.69-.28-.86.09c-.89-.33-1.81-.47-2.76-.42-.79-.32-1.62-.53-2.47-.62l-.34-.17-.25-.03c-1.15-.78-2.39-1.4-3.69-1.87-7.08-5.71-11.03-13.89-15.17-21.82h0Z"/>
      <path class="cls-1" d="m41.26,205.69c-10.88-21.11-21.19-42.5-32.06-63.6-5.52-10.71-12.68-22.33-3.18-33.1,7.74-8.78,25.35-13.35,35.41-5.86,13.54,10.08-.91,24.86-7.57,34.14-5.82,8.1-5.4,19.02,6.58,12.02,7.94-4.64,14.8-12.3,22-18.02,8.27-6.57,32.81-15.91,26.71,4.65-6.77,22.81-18.8,44.38-26.3,67.02-.77,2.33-1.46,4.66-1.89,7.08-.66,4.87,1.57,9.89,6,12.2.48.11.93.31,1.33.59.28.08.56.11.85.11l1.02.48c2.3.47,4.69.43,6.95-.15l.72-.34c.43-.03.87-.09,1.29-.17l.61-.4c1.74-.68,3.4-1.68,4.81-2.91l.83-.47.22-.47c.34-.44.72-.86,1.11-1.24,6.25-6.76,8.34-19.03,10.69-27.7,8.7-25.56,16.74-51.39,25.05-77.09,7.82-24.16,15.77-48.27,23.67-72.42,4.26-13.01,6.73-29.73,20.29-36.23,12.46-5.97,34.26-3.47,34.67,14.08.29,12.42-12.82,27.98-18.35,38.93-6.12,12.11-12.16,24.25-18.32,36.33-12.84,25.16-25.61,50.37-38.26,75.62-1.37,2.74-2.71,5.5-4.18,8.18-4.47,9.27-9.37,18.35-13.98,27.56-.33.68-.7,1.37-1.09,2.03-1.68,3.48-3.58,6.88-5.83,10.03-4.73,6.66-10.24,11.33-17.92,14.1-23.31,5.11-31.81-5.74-41.87-24.97h0Z"/>
      <path class="cls-1" d="m40.95,205.66c-12.48-24.13-25.75-48.36-36.96-73.09-5.52-12.17-2.81-23.34,9.68-29.77,9.07-4.67,24.39-6.12,31.28,3.07,8.11,10.83-4.66,23.01-10.75,31.34-2.76,3.77-8.36,10.58-2.09,13.83,5.29,2.74,11.35-4.39,14.92-7.34,8.12-6.73,17.58-17.77,28-20.84,4.82-1.42,12.05-1.3,14.98,3.63s-1.16,10.93-3.18,15.54c-5.17,11.84-9.5,24.08-14.13,36.15-3.7,9.64-14.33,26.53-11.1,36.92,1.06,3.41,3.47,6,6.84,7.21,3.51.73,7.23.55,10.71-.25,2.03-.94,3.94-2.09,5.71-3.46l.28-.6c7.57-7.52,8.13-19.47,12-28.9,7.15-27.6,17.83-54.72,26.74-81.82s17.32-52.79,25.94-79.22c4.49-13.76,9.66-24.68,25.34-27.26,11.85-1.95,26.67,3.91,26.32,17.99-.27,11.13-11.76,24.49-16.64,34.22-6.25,12.47-12.55,24.92-18.81,37.37-12.93,25.71-25.78,51.42-38.84,77.05-1.67,3.27-3.24,6.61-5.03,9.78-4.12,9.35-9.11,18.55-13.91,27.54-.19.76-.55,1.45-1.06,2.03-1.43,3.51-3.3,7.05-5.72,9.97-10.19,16.03-37.36,24.26-50.81,7.06-4.11-5.26-6.68-12.24-9.7-18.16h0Z"/>
    </g>
  </g>
</svg>