<?xml version="1.0" encoding="utf-8"?>
<!-- Generator: Adobe Illustrator 27.2.0, SVG Export Plug-In . SVG Version: 6.00 Build 0)  -->
<svg version="1.1" id="Ebene_1" shape-rendering="auto"
	 xmlns="http://www.w3.org/2000/svg" xmlns:xlink="http://www.w3.org/1999/xlink" x="0px" y="0px" viewBox="0 0 80 80"
	 style="enable-background:new 0 0 80 80;" xml:space="preserve">
<style type="text/css">
	.st0{fill:#FFFFFF;}
</style>
<g>
	<path class="st0" d="M49.6,3.2c0.9,0,1.6-0.7,1.6-1.6c0-0.9-0.7-1.6-1.6-1.6C48.7,0,48,0.7,48,1.6C48,2.5,48.7,3.2,49.6,3.2z"/>
	<path class="st0" d="M43.2,6.4h1.6h1.6c0.9,0,1.6-0.7,1.6-1.6c0-0.9-0.7-1.6-1.6-1.6h-1.6h-1.6c-0.9,0-1.6,0.7-1.6,1.6
		C41.6,5.7,42.3,6.4,43.2,6.4z"/>
	<path class="st0" d="M49.6,6.4C48.7,6.4,48,7.1,48,8v1.6v1.6c0,0.9,0.7,1.6,1.6,1.6c0.9,0,1.6,0.7,1.6,1.6c0,0.9,0.7,1.6,1.6,1.6
		c0.9,0,1.6-0.7,1.6-1.6v-1.6V9.6V6.4V4.8c0-0.9-0.7-1.6-1.6-1.6c-0.9,0-1.6,0.7-1.6,1.6C51.2,5.7,50.5,6.4,49.6,6.4z"/>
	<path class="st0" d="M27.2,9.6c0.9,0,1.6-0.7,1.6-1.6s0.7-1.6,1.6-1.6H32h1.6c0.9,0,1.6-0.7,1.6-1.6V3.2V1.6c0-0.9-0.7-1.6-1.6-1.6
		C32.7,0,32,0.7,32,1.6c0,0.9-0.7,1.6-1.6,1.6h-1.6h-1.6c-0.9,0-1.6,0.7-1.6,1.6v1.6V8C25.6,8.9,26.3,9.6,27.2,9.6z"/>
	<path class="st0" d="M49.6,16c-0.9,0-1.6,0.7-1.6,1.6c0,0.9,0.7,1.6,1.6,1.6c0.9,0,1.6-0.7,1.6-1.6C51.2,16.7,50.5,16,49.6,16z"/>
	<path class="st0" d="M40,22.4c0.9,0,1.6-0.7,1.6-1.6v-1.6v-1.6c0-0.9,0.7-1.6,1.6-1.6h1.6h1.6c0.9,0,1.6-0.7,1.6-1.6
		c0-0.9-0.7-1.6-1.6-1.6h-1.6h-1.6c-0.9,0-1.6-0.7-1.6-1.6c0-0.9-0.7-1.6-1.6-1.6s-1.6,0.7-1.6,1.6v1.6V16v3.2v1.6
		C38.4,21.7,39.1,22.4,40,22.4z"/>
	<path class="st0" d="M46.4,22.4c0.9,0,1.6-0.7,1.6-1.6c0-0.9-0.7-1.6-1.6-1.6c-0.9,0-1.6,0.7-1.6,1.6
		C44.8,21.7,45.5,22.4,46.4,22.4z"/>
	<path class="st0" d="M52.8,22.4c0.9,0,1.6-0.7,1.6-1.6c0-0.9-0.7-1.6-1.6-1.6c-0.9,0-1.6,0.7-1.6,1.6
		C51.2,21.7,51.9,22.4,52.8,22.4z"/>
	<path class="st0" d="M1.6,28.8h1.6h1.6c0.9,0,1.6-0.7,1.6-1.6c0-0.9-0.7-1.6-1.6-1.6H3.2H1.6c-0.9,0-1.6,0.7-1.6,1.6
		C0,28.1,0.7,28.8,1.6,28.8z"/>
	<path class="st0" d="M11.2,28.8c0.9,0,1.6-0.7,1.6-1.6c0-0.9-0.7-1.6-1.6-1.6c-0.9,0-1.6,0.7-1.6,1.6C9.6,28.1,10.3,28.8,11.2,28.8
		z"/>
	<path class="st0" d="M20.8,25.6c-0.9,0-1.6,0.7-1.6,1.6c0,0.9,0.7,1.6,1.6,1.6h1.6H24c0.9,0,1.6-0.7,1.6-1.6c0-0.9-0.7-1.6-1.6-1.6
		h-1.6H20.8z"/>
	<path class="st0" d="M46.4,28.8c0.9,0,1.6-0.7,1.6-1.6c0-0.9-0.7-1.6-1.6-1.6c-0.9,0-1.6,0.7-1.6,1.6
		C44.8,28.1,45.5,28.8,46.4,28.8z"/>
	<path class="st0" d="M73.6,30.4c0,0.9,0.7,1.6,1.6,1.6c0.9,0,1.6-0.7,1.6-1.6v-1.6v-1.6c0-0.9-0.7-1.6-1.6-1.6h-1.6H72
		c-0.9,0-1.6,0.7-1.6,1.6c0,0.9,0.7,1.6,1.6,1.6S73.6,29.5,73.6,30.4z"/>
	<path class="st0" d="M14.4,28.8c-0.9,0-1.6,0.7-1.6,1.6c0,0.9,0.7,1.6,1.6,1.6c0.9,0,1.6-0.7,1.6-1.6C16,29.5,15.3,28.8,14.4,28.8z
		"/>
	<path class="st0" d="M49.6,32h1.6h1.6c0.9,0,1.6-0.7,1.6-1.6v-1.6v-1.6c0-0.9-0.7-1.6-1.6-1.6c-0.9,0-1.6,0.7-1.6,1.6
		c0,0.9-0.7,1.6-1.6,1.6c-0.9,0-1.6,0.7-1.6,1.6C48,31.3,48.7,32,49.6,32z"/>
	<path class="st0" d="M8,35.2c0.9,0,1.6-0.7,1.6-1.6C9.6,32.7,8.9,32,8,32s-1.6,0.7-1.6,1.6C6.4,34.5,7.1,35.2,8,35.2z"/>
	<path class="st0" d="M52.8,35.2c-0.9,0-1.6,0.7-1.6,1.6v1.6V40c0,0.9,0.7,1.6,1.6,1.6c0.9,0,1.6-0.7,1.6-1.6s0.7-1.6,1.6-1.6
		s1.6,0.7,1.6,1.6s0.7,1.6,1.6,1.6c0.9,0,1.6,0.7,1.6,1.6c0,0.9,0.7,1.6,1.6,1.6c0.9,0,1.6,0.7,1.6,1.6c0,0.9,0.7,1.6,1.6,1.6h1.6
		h1.6c0.9,0,1.6-0.7,1.6-1.6c0-0.9-0.7-1.6-1.6-1.6c-0.9,0-1.6-0.7-1.6-1.6c0-0.9-0.7-1.6-1.6-1.6c-0.9,0-1.6-0.7-1.6-1.6
		s0.7-1.6,1.6-1.6c0.9,0,1.6-0.7,1.6-1.6c0-0.9-0.7-1.6-1.6-1.6c-0.9,0-1.6-0.7-1.6-1.6c0-0.9-0.7-1.6-1.6-1.6
		c-0.9,0-1.6-0.7-1.6-1.6c0-0.9,0.7-1.6,1.6-1.6c0.9,0,1.6,0.7,1.6,1.6c0,0.9,0.7,1.6,1.6,1.6c0.9,0,1.6-0.7,1.6-1.6v-1.6v-1.6
		c0-0.9-0.7-1.6-1.6-1.6H64h-3.2h-1.6c-0.9,0-1.6,0.7-1.6,1.6v1.6v1.6c0,0.9-0.7,1.6-1.6,1.6s-1.6,0.7-1.6,1.6
		C54.4,34.5,53.7,35.2,52.8,35.2z"/>
	<path class="st0" d="M68.8,32c-0.9,0-1.6,0.7-1.6,1.6c0,0.9,0.7,1.6,1.6,1.6h1.6H72c0.9,0,1.6-0.7,1.6-1.6c0-0.9-0.7-1.6-1.6-1.6
		h-1.6H68.8z"/>
	<path class="st0" d="M78.4,35.2c-0.9,0-1.6,0.7-1.6,1.6c0,0.9-0.7,1.6-1.6,1.6h-1.6H72c-0.9,0-1.6,0.7-1.6,1.6v1.6v1.6
		c0,0.9,0.7,1.6,1.6,1.6h1.6h1.6c0.9,0,1.6,0.7,1.6,1.6c0,0.9,0.7,1.6,1.6,1.6c0.9,0,1.6-0.7,1.6-1.6v-1.6v-3.2v-3.2v-1.6
		C80,35.9,79.3,35.2,78.4,35.2z"/>
	<path class="st0" d="M1.6,41.6c0.9,0,1.6,0.7,1.6,1.6c0,0.9,0.7,1.6,1.6,1.6c0.9,0,1.6-0.7,1.6-1.6v-1.6V40c0-0.9-0.7-1.6-1.6-1.6
		c-0.9,0-1.6-0.7-1.6-1.6v-1.6v-1.6c0-0.9-0.7-1.6-1.6-1.6C0.7,32,0,32.7,0,33.6v1.6v3.2V40C0,40.9,0.7,41.6,1.6,41.6z"/>
	<path class="st0" d="M30.4,44.8c0.9,0,1.6-0.7,1.6-1.6c0-0.9-0.7-1.6-1.6-1.6c-0.9,0-1.6,0.7-1.6,1.6
		C28.8,44.1,29.5,44.8,30.4,44.8z"/>
	<path class="st0" d="M1.6,48c0.9,0,1.6-0.7,1.6-1.6c0-0.9-0.7-1.6-1.6-1.6c-0.9,0-1.6,0.7-1.6,1.6C0,47.3,0.7,48,1.6,48z"/>
	<path class="st0" d="M44.8,44.8h-1.6c-0.9,0-1.6,0.7-1.6,1.6c0,0.9,0.7,1.6,1.6,1.6h1.6H48h3.2h1.6c0.9,0,1.6-0.7,1.6-1.6
		c0-0.9-0.7-1.6-1.6-1.6h-1.6H48H44.8z"/>
	<path class="st0" d="M11.2,51.2c-0.9,0-1.6,0.7-1.6,1.6c0,0.9,0.7,1.6,1.6,1.6h1.6h1.6c0.9,0,1.6-0.7,1.6-1.6
		c0-0.9,0.7-1.6,1.6-1.6c0.9,0,1.6-0.7,1.6-1.6c0-0.9-0.7-1.6-1.6-1.6c-0.9,0-1.6-0.7-1.6-1.6c0-0.9-0.7-1.6-1.6-1.6
		c-0.9,0-1.6-0.7-1.6-1.6c0-0.9-0.7-1.6-1.6-1.6c-0.9,0-1.6,0.7-1.6,1.6c0,0.9-0.7,1.6-1.6,1.6s-1.6,0.7-1.6,1.6
		C6.4,47.3,7.1,48,8,48h1.6h1.6c0.9,0,1.6,0.7,1.6,1.6C12.8,50.5,12.1,51.2,11.2,51.2z"/>
	<path class="st0" d="M1.6,54.4h1.6h1.6c0.9,0,1.6-0.7,1.6-1.6v-1.6v-1.6c0-0.9-0.7-1.6-1.6-1.6c-0.9,0-1.6,0.7-1.6,1.6
		c0,0.9-0.7,1.6-1.6,1.6c-0.9,0-1.6,0.7-1.6,1.6C0,53.7,0.7,54.4,1.6,54.4z"/>
	<path class="st0" d="M27.2,51.2c0.9,0,1.6,0.7,1.6,1.6c0,0.9-0.7,1.6-1.6,1.6c-0.9,0-1.6,0.7-1.6,1.6v1.6v1.6
		c0,0.9,0.7,1.6,1.6,1.6c0.9,0,1.6,0.7,1.6,1.6c0,0.9,0.7,1.6,1.6,1.6c0.9,0,1.6-0.7,1.6-1.6v-1.6v-1.6c0-0.9,0.7-1.6,1.6-1.6
		c0.9,0,1.6-0.7,1.6-1.6v-1.6v-1.6c0-0.9,0.7-1.6,1.6-1.6c0.9,0,1.6-0.7,1.6-1.6V48v-3.2v-3.2V40c0-0.9,0.7-1.6,1.6-1.6h1.6h3.2h1.6
		c0.9,0,1.6-0.7,1.6-1.6c0-0.9-0.7-1.6-1.6-1.6h-1.6h-1.6c-0.9,0-1.6-0.7-1.6-1.6c0-0.9,0.7-1.6,1.6-1.6c0.9,0,1.6-0.7,1.6-1.6
		c0-0.9-0.7-1.6-1.6-1.6c-0.9,0-1.6-0.7-1.6-1.6c0-0.9-0.7-1.6-1.6-1.6s-1.6-0.7-1.6-1.6s-0.7-1.6-1.6-1.6c-0.9,0-1.6-0.7-1.6-1.6
		v-1.6V16v-1.6c0-0.9-0.7-1.6-1.6-1.6c-0.9,0-1.6-0.7-1.6-1.6c0-0.9-0.7-1.6-1.6-1.6c-0.9,0-1.6,0.7-1.6,1.6c0,0.9-0.7,1.6-1.6,1.6
		c-0.9,0-1.6,0.7-1.6,1.6V16v3.2v3.2V24c0,0.9,0.7,1.6,1.6,1.6c0.9,0,1.6-0.7,1.6-1.6v-1.6v-3.2v-1.6c0-0.9,0.7-1.6,1.6-1.6
		c0.9,0,1.6,0.7,1.6,1.6v1.6v3.2V24c0,0.9,0.7,1.6,1.6,1.6c0.9,0,1.6,0.7,1.6,1.6v1.6V32v1.6c0,0.9-0.7,1.6-1.6,1.6H32h-1.6
		c-0.9,0-1.6-0.7-1.6-1.6c0-0.9,0.7-1.6,1.6-1.6c0.9,0,1.6-0.7,1.6-1.6c0-0.9-0.7-1.6-1.6-1.6h-1.6h-1.6c-0.9,0-1.6,0.7-1.6,1.6
		c0,0.9-0.7,1.6-1.6,1.6h-1.6h-3.2h-1.6c-0.9,0-1.6,0.7-1.6,1.6v1.6v1.6c0,0.9,0.7,1.6,1.6,1.6c0.9,0,1.6-0.7,1.6-1.6
		c0-0.9,0.7-1.6,1.6-1.6c0.9,0,1.6,0.7,1.6,1.6c0,0.9-0.7,1.6-1.6,1.6c-0.9,0-1.6,0.7-1.6,1.6s0.7,1.6,1.6,1.6
		c0.9,0,1.6,0.7,1.6,1.6c0,0.9-0.7,1.6-1.6,1.6c-0.9,0-1.6,0.7-1.6,1.6c0,0.9,0.7,1.6,1.6,1.6c0.9,0,1.6,0.7,1.6,1.6
		c0,0.9-0.7,1.6-1.6,1.6c-0.9,0-1.6,0.7-1.6,1.6c0,0.9,0.7,1.6,1.6,1.6h1.6H24c0.9,0,1.6-0.7,1.6-1.6C25.6,51.9,26.3,51.2,27.2,51.2
		z M25.6,44.8v-3.2V40c0-0.9,0.7-1.6,1.6-1.6h1.6h1.6c0.9,0,1.6,0.7,1.6,1.6s0.7,1.6,1.6,1.6c0.9,0,1.6,0.7,1.6,1.6
		c0,0.9-0.7,1.6-1.6,1.6c-0.9,0-1.6,0.7-1.6,1.6c0,0.9-0.7,1.6-1.6,1.6h-1.6h-1.6c-0.9,0-1.6-0.7-1.6-1.6V44.8z"/>
	<path class="st0" d="M78.4,51.2c-0.9,0-1.6,0.7-1.6,1.6c0,0.9,0.7,1.6,1.6,1.6c0.9,0,1.6-0.7,1.6-1.6C80,51.9,79.3,51.2,78.4,51.2z
		"/>
	<path class="st0" d="M59.2,57.6c-0.9,0-1.6,0.7-1.6,1.6c0,0.9,0.7,1.6,1.6,1.6c0.9,0,1.6-0.7,1.6-1.6
		C60.8,58.3,60.1,57.6,59.2,57.6z"/>
	<path class="st0" d="M78.4,57.6h-1.6h-1.6c-0.9,0-1.6,0.7-1.6,1.6c0,0.9-0.7,1.6-1.6,1.6s-1.6-0.7-1.6-1.6c0-0.9-0.7-1.6-1.6-1.6
		c-0.9,0-1.6-0.7-1.6-1.6v-1.6v-1.6c0-0.9-0.7-1.6-1.6-1.6c-0.9,0-1.6-0.7-1.6-1.6c0-0.9-0.7-1.6-1.6-1.6c-0.9,0-1.6-0.7-1.6-1.6
		c0-0.9-0.7-1.6-1.6-1.6s-1.6,0.7-1.6,1.6V48h0v1.6c0,0.9-0.7,1.6-1.6,1.6h-1.6h-1.6c-0.9,0-1.6,0.7-1.6,1.6v1.6V56
		c0,0.9-0.7,1.6-1.6,1.6c-0.9,0-1.6,0.7-1.6,1.6c0,0.9,0.7,1.6,1.6,1.6c0.9,0,1.6,0.7,1.6,1.6c0,0.9-0.7,1.6-1.6,1.6
		c-0.9,0-1.6,0.7-1.6,1.6c0,0.9-0.7,1.6-1.6,1.6c-0.9,0-1.6-0.7-1.6-1.6c0-0.9-0.7-1.6-1.6-1.6c-0.9,0-1.6-0.7-1.6-1.6v-1.6v-1.6
		c0-0.9,0.7-1.6,1.6-1.6h1.6h1.6c0.9,0,1.6-0.7,1.6-1.6s-0.7-1.6-1.6-1.6c-0.9,0-1.6-0.7-1.6-1.6c0-0.9-0.7-1.6-1.6-1.6h-1.6H40
		c-0.9,0-1.6,0.7-1.6,1.6v1.6V56c0,0.9-0.7,1.6-1.6,1.6c-0.9,0-1.6,0.7-1.6,1.6c0,0.9,0.7,1.6,1.6,1.6c0.9,0,1.6,0.7,1.6,1.6V64v1.6
		c0,0.9,0.7,1.6,1.6,1.6s1.6,0.7,1.6,1.6c0,0.9-0.7,1.6-1.6,1.6s-1.6,0.7-1.6,1.6s0.7,1.6,1.6,1.6s1.6,0.7,1.6,1.6
		c0,0.9-0.7,1.6-1.6,1.6s-1.6,0.7-1.6,1.6c0,0.9,0.7,1.6,1.6,1.6h1.6h3.2h1.6c0.9,0,1.6-0.7,1.6-1.6c0-0.9-0.7-1.6-1.6-1.6
		c-0.9,0-1.6-0.7-1.6-1.6v-1.6V72c0-0.9,0.7-1.6,1.6-1.6c0.9,0,1.6,0.7,1.6,1.6s0.7,1.6,1.6,1.6c0.9,0,1.6-0.7,1.6-1.6
		s0.7-1.6,1.6-1.6h1.6H56h4.8V72c0,0.9,0.7,1.6,1.6,1.6c0.9,0,1.6-0.7,1.6-1.6s0.7-1.6,1.6-1.6c0.9,0,1.6-0.7,1.6-1.6v-1.6v-1.6
		c0-0.9,0.7-1.6,1.6-1.6c0.9,0,1.6,0.7,1.6,1.6c0,0.9,0.7,1.6,1.6,1.6h1.6h1.6c0.9,0,1.6-0.7,1.6-1.6c0-0.9,0.7-1.6,1.6-1.6
		c0.9,0,1.6-0.7,1.6-1.6v-1.6v-1.6C80,58.3,79.3,57.6,78.4,57.6z M60.8,70.4H56c0.9,0,1.6-0.7,1.6-1.6c0-0.9,0.7-1.6,1.6-1.6
		c0.9,0,1.6,0.7,1.6,1.6V70.4z M64,57.6v3.2v1.6c0,0.9-0.7,1.6-1.6,1.6h-1.6h-3.2H56c-0.9,0-1.6-0.7-1.6-1.6v-1.6v-3.2V56
		c0-0.9,0.7-1.6,1.6-1.6h1.6h3.2h1.6c0.9,0,1.6,0.7,1.6,1.6V57.6z"/>
	<path class="st0" d="M46.4,60.8c-0.9,0-1.6,0.7-1.6,1.6c0,0.9,0.7,1.6,1.6,1.6c0.9,0,1.6-0.7,1.6-1.6C48,61.5,47.3,60.8,46.4,60.8z
		"/>
	<path class="st0" d="M33.6,64c-0.9,0-1.6,0.7-1.6,1.6c0,0.9,0.7,1.6,1.6,1.6c0.9,0,1.6-0.7,1.6-1.6C35.2,64.7,34.5,64,33.6,64z"/>
	<path class="st0" d="M30.4,70.4c0.9,0,1.6-0.7,1.6-1.6c0-0.9-0.7-1.6-1.6-1.6h-1.6h-1.6c-0.9,0-1.6,0.7-1.6,1.6s0.7,1.6,1.6,1.6
		h1.6v0H30.4z"/>
	<path class="st0" d="M36.8,67.2c-0.9,0-1.6,0.7-1.6,1.6c0,0.9,0.7,1.6,1.6,1.6c0.9,0,1.6-0.7,1.6-1.6
		C38.4,67.9,37.7,67.2,36.8,67.2z"/>
	<path class="st0" d="M33.6,70.4c-0.9,0-1.6,0.7-1.6,1.6s0.7,1.6,1.6,1.6c0.9,0,1.6-0.7,1.6-1.6S34.5,70.4,33.6,70.4z"/>
	<path class="st0" d="M72,70.4h-1.6h-1.6c-0.9,0-1.6,0.7-1.6,1.6v1.6v1.6c0,0.9-0.7,1.6-1.6,1.6c-0.9,0-1.6,0.7-1.6,1.6
		c0,0.9,0.7,1.6,1.6,1.6h1.6h1.6c0.9,0,1.6-0.7,1.6-1.6v-1.6v-1.6c0-0.9,0.7-1.6,1.6-1.6s1.6-0.7,1.6-1.6S72.9,70.4,72,70.4z"/>
	<path class="st0" d="M78.4,70.4c-0.9,0-1.6,0.7-1.6,1.6s-0.7,1.6-1.6,1.6c-0.9,0-1.6,0.7-1.6,1.6v1.6v1.6c0,0.9,0.7,1.6,1.6,1.6
		h1.6h1.6c0.9,0,1.6-0.7,1.6-1.6v-1.6v-3.2V72C80,71.1,79.3,70.4,78.4,70.4z"/>
	<path class="st0" d="M30.4,73.6h-1.6h-1.6c-0.9,0-1.6,0.7-1.6,1.6v1.6v1.6c0,0.9,0.7,1.6,1.6,1.6c0.9,0,1.6-0.7,1.6-1.6
		c0-0.9,0.7-1.6,1.6-1.6c0.9,0,1.6-0.7,1.6-1.6C32,74.3,31.3,73.6,30.4,73.6z"/>
	<path class="st0" d="M56,73.6h-1.6h-1.6c-0.9,0-1.6,0.7-1.6,1.6v1.6v1.6c0,0.9,0.7,1.6,1.6,1.6c0.9,0,1.6-0.7,1.6-1.6
		c0-0.9,0.7-1.6,1.6-1.6s1.6-0.7,1.6-1.6C57.6,74.3,56.9,73.6,56,73.6z"/>
	<path class="st0" d="M33.6,76.8c-0.9,0-1.6,0.7-1.6,1.6c0,0.9,0.7,1.6,1.6,1.6c0.9,0,1.6-0.7,1.6-1.6
		C35.2,77.5,34.5,76.8,33.6,76.8z"/>
	<path class="st0" d="M0.7,22.4h21c0.4,0,0.7-0.3,0.7-0.7v-2.5V16v-3.2V9.6V6.4V3.2V0.7c0-0.4-0.3-0.7-0.7-0.7h-21
		C0.3,0,0,0.3,0,0.7v2.5v3.2v3.2v3.2V16v3.2v2.5C0,22.1,0.3,22.4,0.7,22.4z M3.2,16v-3.2V9.6V6.4V3.6c0-0.2,0.2-0.4,0.4-0.4h15.2
		c0.2,0,0.4,0.2,0.4,0.4v2.8v3.2v3.2V16v2.8c0,0.2-0.2,0.4-0.4,0.4H3.6c-0.2,0-0.4-0.2-0.4-0.4V16z"/>
	<path class="st0" d="M7.1,16h8.2c0.4,0,0.7-0.3,0.7-0.7v-2.5V9.6V7.1c0-0.4-0.3-0.7-0.7-0.7H7.1c-0.4,0-0.7,0.3-0.7,0.7v2.5v3.2
		v2.5C6.4,15.7,6.7,16,7.1,16z"/>
	<path class="st0" d="M79.3,0h-21c-0.4,0-0.7,0.3-0.7,0.7v2.5v3.2v3.2v3.2V16v3.2v2.5c0,0.4,0.3,0.7,0.7,0.7h21
		c0.4,0,0.7-0.3,0.7-0.7v-2.5V16v-3.2V9.6V6.4V3.2V0.7C80,0.3,79.7,0,79.3,0z M76.8,6.4v3.2v3.2V16v2.8c0,0.2-0.2,0.4-0.4,0.4H61.2
		c-0.2,0-0.4-0.2-0.4-0.4V16v-3.2V9.6V6.4V3.6c0-0.2,0.2-0.4,0.4-0.4h15.2c0.2,0,0.4,0.2,0.4,0.4V6.4z"/>
	<path class="st0" d="M72.9,6.4h-8.2c-0.4,0-0.7,0.3-0.7,0.7v2.5v3.2v2.5c0,0.4,0.3,0.7,0.7,0.7h8.2c0.4,0,0.7-0.3,0.7-0.7v-2.5V9.6
		V7.1C73.6,6.7,73.3,6.4,72.9,6.4z"/>
	<path class="st0" d="M21.7,57.6h-21c-0.4,0-0.7,0.3-0.7,0.7v2.5V64v3.2v3.2v3.2v3.2v2.5C0,79.7,0.3,80,0.7,80h21
		c0.4,0,0.7-0.3,0.7-0.7v-2.5v-3.2v-3.2v-3.2V64v-3.2v-2.5C22.4,57.9,22.1,57.6,21.7,57.6z M19.2,64v3.2v3.2v3.2v2.8
		c0,0.2-0.2,0.4-0.4,0.4H3.6c-0.2,0-0.4-0.2-0.4-0.4v-2.8v-3.2v-3.2V64v-2.8c0-0.2,0.2-0.4,0.4-0.4h15.2c0.2,0,0.4,0.2,0.4,0.4V64z"
		/>
	<path class="st0" d="M15.3,64H7.1c-0.4,0-0.7,0.3-0.7,0.7v2.5v3.2v2.5c0,0.4,0.3,0.7,0.7,0.7h8.2c0.4,0,0.7-0.3,0.7-0.7v-2.5v-3.2
		v-2.5C16,64.3,15.7,64,15.3,64z"/>
</g>
</svg>
