<?xml version="1.0" encoding="UTF-8"?>
<svg id="Livello_2" data-name="Livello 2" xmlns="http://www.w3.org/2000/svg" viewBox="0 0 211.73 230.74">
  <defs>
    <style>
      .cls-1 {
        fill: #ff1f53;
      }
    </style>
  </defs>
  <g id="Livello_1-2" data-name="Livello 1">
    <g>
      <g>
        <path class="cls-1" d="m95.27,229.84c-.78,0-1.58-.03-2.38-.1-3.47-.08-6.84-.83-9.77-2.31-3.29-1.66-5.63-3.93-7.28-6.55-.12-.18-.23-.37-.35-.55-7.81-12.91-1.11-36.26,3.32-51.72.78-2.72,1.52-5.29,2.08-7.47.3-1.16.84-2.85,1.47-4.81.79-2.44,1.71-5.33,2.56-8.36,1.74-9.95,2.05-18.57-1-22.47-1.09-1.39-2.59-2.11-4.47-2.17-.18,0-.37,0-.56,0l-1.56.05,1.57-.49c.19,0,.38,0,.57,0,2.84.02,4.99.97,6.39,2.82,3.51,4.64,1.79,14.11-.53,22.43-1.83,10.5-5.22,22.42-7.91,31.87-1.94,6.83-3.48,12.22-3.83,14.95-.98,7.52-1.63,15.54.75,22.03.43,1.09.94,2.13,1.53,3.11,2.71,4.49,7.08,7.39,12.99,8.61,1.43.29,2.82.49,4.17.6.19,0,.37,0,.56,0,5.66,0,11.51-1.78,16-5.07.61-.54,1.2-1.13,1.76-1.76,7.19-8.09,9.21-22.77,4.9-35.71l.41-.14c2.36,7.04,6.68,24.59-4.08,35.59-.83.85-1.74,1.63-2.7,2.34-3.91,3.48-8.85,5.26-14.58,5.26Zm7.92-1.77c-.39.14-.79.27-1.18.39.4-.12.8-.25,1.18-.39Zm15.67-29.23c.36,8.52-1.74,16.73-5.99,22.43,5.85-6.49,6.72-15.09,5.99-22.43Zm-34.75-46.6c-.46,1.5-.92,2.92-1.34,4.22-.63,1.95-1.17,3.63-1.46,4.78-.56,2.19-1.3,4.76-2.08,7.48-2.74,9.55-6.34,22.12-6.84,33.33.18-2.65.5-5.1.77-7.16.36-2.76,1.9-8.17,3.84-15.01,2.34-8.21,5.2-18.29,7.12-27.65Zm-1.13-28.25c.47.34.91.75,1.29,1.24,2.68,3.42,2.84,10.33,1.73,18.57,1.64-7.01,2.34-14.09-.49-17.83-.66-.88-1.51-1.54-2.53-1.98Z"/>
        <path class="cls-1" d="m23.89,163.31c-.23,0-.47,0-.71,0-8.92-.22-15.61-3.87-19.2-10.39-2.23-3.38-3.8-8.11-3.84-14.73-.05-9.73,4.32-18.34,12.63-24.9,2.48-1.95,5.25-3.68,8.22-5.14,10.91-6.09,23.9-7.78,36.85-4.6l-.1.42c-11.51-2.82-25.41-.94-36.52,4.55-2.75,1.53-5.36,3.34-7.81,5.43-9.78,8.33-14.47,24.31-10.46,35.62.39,1.09.85,2.13,1.38,3.09,2.23,3.39,5.13,5.39,7.77,6.57,9.02,4.03,22.46,1.45,32.52-5.93,3.36-3.31,6.4-7.14,9.4-10.92,6.94-8.74,14.11-17.79,24.84-19.48l.07.43h-.02c-9.37,1.49-15.75,9.62-21.92,17.47-3.11,3.96-6.04,7.7-9.32,10.6-.9.8-1.83,1.55-2.79,2.26-5.64,5.55-12.2,9.65-21,9.65Zm-16.55-6.57c3.75,3.84,9.16,5.97,15.85,6.13,7.91.2,14-2.96,19.26-7.54-9.88,6.28-21.92,8.14-30.52,4.3-1.5-.67-3.08-1.6-4.59-2.89Zm60.05-28.19c-4.76,3.68-8.82,8.81-13.03,14.1-2.3,2.9-4.63,5.84-7.11,8.54l.13-.12c3.25-2.87,6.17-6.6,9.27-10.54,3.36-4.28,6.79-8.65,10.74-11.99Zm-53.41-15.64c-.32.24-.63.47-.94.72-8.21,6.47-12.52,14.97-12.47,24.56.02,3.5.47,6.46,1.23,8.97-2.6-11.21,2.15-25.71,11.33-33.54.28-.24.56-.47.85-.71Z"/>
        <path class="cls-1" d="m116.22,186.84c-1.44-4.41-3.37-9.18-5.42-14.22-4.35-10.7-8.84-21.77-9.46-31.52-.06-1.01-.03-1.97.11-2.88-.12-2.15.18-3.91,1.09-5.3,1.19-1.83,3.36-2.98,6.53-3.82,8.38-3.94,22.62-4.43,37.52-4.95,13.99-.48,28.84-.99,40.78-4.28,1.25-.42,2.49-.88,3.7-1.38,12.27-4.98,19.79-14.31,20.13-24.97l.02-.77.5-.11v.27c-.12,15.92-10.27,23.57-24.39,27.41-13.79,4.64-29.54,5.29-44.83,5.93-9.27.39-18.03.75-26.39,1.94-2.68.38-5.02.79-6.98,1.32-1.92.92-3.52,2.02-4.73,3.35-1.38,1.52-2.22,3.28-2.53,5.33.13,2.13.71,4.87,1.74,8.5,2.48,8.71,5.44,17.46,8.31,25.93,1.56,4.61,3.18,9.37,4.69,14.07l-.41.13Zm-14.46-46.08c0,.1.01.21.02.31.61,9.69,5.09,20.72,9.42,31.39.46,1.13.92,2.25,1.36,3.36-.35-1.02-.69-2.03-1.03-3.04-2.87-8.47-5.84-17.23-8.32-25.95-.64-2.25-1.15-4.27-1.45-6.07Zm5.21-10.52c-1.87.73-3.24,1.66-4.06,2.92-.57.88-.91,1.91-1.01,3.23.46-1.41,1.2-2.67,2.21-3.79.8-.88,1.76-1.66,2.86-2.35Zm73.26-8.32c-10.46,1.87-22.32,2.28-33.62,2.67-13.53.47-26.52.91-34.98,3.93,1.35-.27,2.83-.5,4.45-.73,8.38-1.19,17.15-1.56,26.44-1.95,12.72-.53,25.78-1.08,37.72-3.92Zm30.01-21.02c-2.42,6.7-7.83,12.48-15.5,16.41,7.6-3.35,13.25-8.47,15.5-16.41Z"/>
        <path class="cls-1" d="m96.88,120.74h-.04c-7.69-.06-15.09-4.48-22.25-8.75-5.38-3.21-10.94-6.53-16.58-7.97-.1-.03-.2-.05-.3-.07l.1-.42s0,0,.01,0c.08.02.17.04.25.06,6.03,1.53,11.55,4.84,16.89,8.05,6.08,3.65,11.83,7.11,18.3,8.19,1.93.32,3.84.35,5.73.13,5.83-1.61,16.85-8.73,29.35-16.82,2.66-1.72,5.38-3.48,8.15-5.25,1.46-1.09,2.97-2.24,4.51-3.41,16.14-12.28,36.04-27.42,53.36-23.36,3.4-.09,6.42.48,8.96,1.86,5.03,2.73,7.8,8.57,8.26,17.38.09.84.14,1.69.14,2.55v.18l-.51.11v-.27c0-.87-.03-1.71-.07-2.52-.93-8.33-6.36-15.29-14.36-18.12-.76-.27-1.53-.5-2.3-.69-15.13.41-38.15,14.12-57.77,26.66-2.56,1.92-4.98,3.68-7.19,5.14-2.13,1.41-4.3,3.01-6.6,4.71-7.24,5.34-15.27,11.26-23.84,12.28-.84.23-1.58.35-2.21.35Zm32.52-17.75c-.27.18-.54.35-.81.52-11.32,7.32-20.84,13.47-26.97,16,7.51-1.75,14.6-6.98,21.07-11.74,2.3-1.7,4.48-3.3,6.62-4.72.03-.02.06-.04.1-.06Zm59-32.1c-15.66,0-32.87,13.09-47.13,23.94-.1.08-.2.16-.31.23,18.28-11.54,37.76-22.64,51.68-23.83-1.4-.23-2.82-.34-4.25-.34Zm7.73.73c.27.08.54.18.81.27,6.78,2.4,11.76,7.72,13.79,14.33-1.01-6.34-3.56-10.65-7.61-12.85-2.01-1.09-4.37-1.65-6.99-1.76Z"/>
        <path class="cls-1" d="m92.14,229.95c-5.48,0-9.83-1.62-12.97-4.84-7.45-7.65-8.18-24.12-2.16-48.93.95-3.92,2.49-8.39,4.13-13.13,3.35-9.7,7.14-20.7,6.33-29.07-.5-5.23-2.28-8.46-5.26-9.6-4.83-1.84-11.59,2.16-16.31,6.52-2.84,2.62-5.87,6.07-9.09,9.71-12.53,14.2-28.13,31.88-46.72,18-7.19-5.37-10.66-12.54-10.01-20.72.89-11.38,10.18-24.18,22.07-30.45,11.24-5.92,24.95-7.04,38.6-3.14,5.11,1.46,10.13,4.55,14.99,7.54,6.55,4.03,13.33,8.2,20.42,8.44,5.02.15,17.73-7.98,32.43-17.41,26.51-17.02,59.51-38.2,74.84-29.85,5.48,2.98,8.27,9.68,8.3,19.89h0c-.04,4.61-1.35,9.06-3.91,13.21-10.95,17.78-38.83,18.88-61.22,19.76-5.39.21-10.48.41-14.82.84-1.51.15-3.51.21-5.82.28-8.66.26-21.74.66-24.72,6.63-2.98,5.98,3.03,20.14,7.42,30.48,1.43,3.38,2.67,6.29,3.33,8.32,4.34,13.34,10.9,33.51,3.59,46.21-3.06,5.32-8.38,8.83-15.79,10.42-2.75.59-5.31.89-7.65.89Zm-12.55-106.46c.97,0,1.9.15,2.77.48,3.16,1.2,5.02,4.55,5.54,9.96.81,8.47-2.99,19.51-6.35,29.26-1.63,4.72-3.17,9.19-4.11,13.09-5.98,24.66-5.3,40.98,2.05,48.53,4.37,4.49,11.17,5.77,20.22,3.83,7.29-1.57,12.51-5,15.51-10.22,7.22-12.54.43-33.4-3.63-45.86-.65-2.01-1.89-4.92-3.32-8.28-4.42-10.42-10.48-24.68-7.41-30.84,3.1-6.2,16.33-6.6,25.09-6.87,2.3-.07,4.29-.13,5.79-.28,4.36-.43,9.45-.63,14.85-.84,22.3-.88,50.04-1.96,60.87-19.55,2.52-4.09,3.81-8.46,3.84-12.99-.03-10.04-2.75-16.61-8.08-19.51-15.09-8.22-47.98,12.88-74.4,29.83-15.2,9.75-27.24,17.48-32.5,17.48-.06,0-.12,0-.18,0-7.2-.25-14.03-4.44-20.63-8.5-4.83-2.97-9.83-6.05-14.88-7.49-13.54-3.87-27.13-2.76-38.28,3.1-11.78,6.2-20.96,18.86-21.84,30.1-.63,8.03,2.77,15.07,9.84,20.35,18.27,13.65,33.72-3.87,46.14-17.94,3.22-3.65,6.27-7.11,9.12-9.74,3.97-3.67,9.39-7.09,13.98-7.09Z"/>
        <path class="cls-1" d="m93.56,229.76c-4.01,0-7.93-.87-11.19-2.68-11.75-6.54-10.85-20.51-9.09-33.09.43-3.08,2.13-8.81,4.08-15.45,5.17-17.49,12.98-43.92,6.63-52.37-1.36-1.81-3.35-2.73-5.92-2.73h-.05c-9.6.05-16.71,9-24.25,18.48-7.49,9.43-15.24,19.17-26.09,20.89-9.69,1.53-18.02-2.1-22.84-9.98-5.89-9.62-5.27-22.85,1.52-32.18,8.46-11.63,20.16-17.72,34.77-18.11.46-.01.92-.02,1.39-.02,11.61,0,24.79,3.73,37.31,10.57,21.93,11.99,39.5-1.14,58.1-15.03,4.25-3.17,8.64-6.46,13.05-9.37.84-.56,1.72-1.14,2.64-1.76,11.21-7.51,28.17-18.85,41.66-15.86,5.39,1.19,9.82,4.61,13.18,10.15,1.99,3.28,3.08,7.14,3.18,11.16h0c.46,26.95-31.09,29.75-51.96,31.61-1.7.15-3.33.3-4.87.45-4.43.44-8.97.79-13.37,1.14-8.53.67-17.35,1.37-25.87,2.67-7.34,1.13-11.17,2.72-12.79,5.35-2.11,3.4-.58,8.64,2.07,16.9,1.13,3.53,2.74,7.66,4.44,12.03,7.57,19.48,17.94,46.16,2.37,60.54-4.69,4.34-11.54,6.67-18.12,6.67Zm-15.48-106.75c2.71,0,4.82.98,6.26,2.9,6.48,8.62-1.37,35.18-6.56,52.75-1.96,6.62-3.65,12.33-4.07,15.38-1.74,12.44-2.64,26.25,8.87,32.65,8.45,4.7,21.37,2.94,28.8-3.93,15.35-14.19,5.04-40.71-2.48-60.07-1.7-4.38-3.31-8.51-4.45-12.05-2.69-8.38-4.23-13.7-2.03-17.26,1.7-2.74,5.61-4.4,13.09-5.55,8.53-1.31,17.36-2,25.9-2.68,4.39-.35,8.93-.7,13.36-1.14,1.54-.15,3.17-.3,4.87-.45,20.71-1.84,52.01-4.63,51.57-31.17-.09-3.95-1.17-7.74-3.12-10.95-3.3-5.44-7.64-8.79-12.91-9.96-13.34-2.95-30.18,8.33-41.33,15.8-.92.61-1.8,1.2-2.64,1.76-4.4,2.91-8.78,6.19-13.03,9.36-8.97,6.7-18.24,13.62-27.81,17.2-10.74,4.01-20.8,3.31-30.76-2.13-23.35-12.77-54.77-17.52-72.92,7.43-6.68,9.19-7.3,22.22-1.5,31.7,4.73,7.72,12.9,11.29,22.41,9.78,10.68-1.69,18.38-11.37,25.82-20.73,7.6-9.56,14.78-18.6,24.58-18.65h.06Z"/>
        <path class="cls-1" d="m172.21,107.55c-2.03,0-4.03-.24-5.88-.7l-.05-.02c-.65-.35-1.36-.77-2-1.16l-.06-.05-1.38-1.83v-.07c-.02-.85.07-1.7.26-2.53l.03-.06c.46-.77.92-1.56,1.34-2.33l.05-.06c.77-.67,1.47-1.42,2.08-2.23,4.92-4.58,15.1-10.68,22.15-4.63l.04.04.74,1.1c.34.91.57,1.82.7,2.73v.04s0,.04,0,.04c-.18.91-.36,1.75-.54,2.58l-.02.05c-3.22,6.32-10.51,9.1-17.44,9.1Zm-5.75-1.11c8.02,1.97,18.72-.22,22.8-8.17.18-.8.35-1.62.52-2.5-.12-.87-.34-1.73-.64-2.56l-.7-1.03c-6.83-5.82-16.74.16-21.53,4.61-.59.8-1.3,1.57-2.09,2.25-.42.76-.86,1.53-1.31,2.29-.17.76-.25,1.54-.24,2.32l1.27,1.68c.62.38,1.29.78,1.92,1.12Z"/>
        <path class="cls-1" d="m94.48,206.45l-.99-.3c-.66-.53-1.34-1.09-2-1.65l-.05-.07-1.35-2.56c-.9-3.4-.8-6.94.25-10.28.47-.85.85-1.71,1.14-2.58l.06-.09c.59-.57,1.11-1.22,1.52-1.94l.03-.06,2.3-1.08.23.02,2.18,1.1.03.05c.44.68.96,1.31,1.57,1.86l.04.05c2.39,4.03,2.98,8.81,1.61,13.1-.49.86-.97,1.68-1.46,2.47l-.05.05c-.68.55-1.36,1.08-2.03,1.58l-.06.03-.91.28h-2.07Zm-.76-.66l.82.23h1.98s.78-.25.78-.25c.65-.48,1.3-.99,1.96-1.52.48-.78.95-1.58,1.41-2.38,1.31-4.12.74-8.76-1.57-12.68-.6-.56-1.14-1.19-1.58-1.88l-2.02-1.02-2.09.98c-.42.72-.93,1.37-1.52,1.94-.3.88-.68,1.74-1.14,2.56-1.01,3.22-1.11,6.67-.25,9.95l1.31,2.48c.64.54,1.29,1.07,1.93,1.58Z"/>
        <path class="cls-1" d="m27.69,145.23c-1.25,0-2.48-.16-3.69-.48h-.03c-5.71-2.31-6.65-6.3-6.44-9.23.54-7.38,9.14-16.31,17.69-18.37,5.82-1.4,10.69.55,13.71,5.51l.02.05c.24.84.35,1.7.31,2.57-1.24,6.42-6.1,13.23-12.08,16.98-3.15,1.97-6.37,2.97-9.5,2.97Zm-3.56-.9c5.17,1.38,9.83-.56,12.83-2.44,5.89-3.69,10.67-10.38,11.89-16.67.03-.78-.06-1.59-.29-2.38-2.91-4.77-7.61-6.65-13.23-5.29-8.39,2.02-16.83,10.76-17.36,17.98-.29,4,1.83,7.04,6.16,8.79Z"/>
        <path class="cls-1" d="m167.66,112.77c-5.74,0-10.98-.85-14.3-2.37l-.04-.02-.78-.58-.91-1.43-.4-1.35.03-.07c.29-.74.46-1.52.5-2.32v-.07s.05-.05.05-.05c.53-.66.95-1.4,1.23-2.2l.04-.07c.6-.69,1.17-1.42,1.69-2.17,5.86-6.19,24.22-19.72,35.01-16.64,3.86,1.1,6.34,4.22,7.39,9.27,1.12,5.39-.54,9.9-4.92,13.39-5.89,4.69-15.81,6.7-24.59,6.7Zm-14.1-2.76c8.31,3.79,28.8,3.39,38.42-4.27,4.24-3.38,5.85-7.74,4.77-12.96-1.01-4.89-3.39-7.89-7.08-8.94-10.48-2.99-28.97,10.6-34.56,16.5-.5.73-1.07,1.46-1.67,2.15-.29.81-.71,1.56-1.25,2.23-.05.8-.22,1.57-.5,2.32l.35,1.18.84,1.32.67.48Z"/>
        <path class="cls-1" d="m94,214.73c-.07,0-.14,0-.21,0-4.97-.11-8.47-3.67-9.61-9.77-1.88-9.59.61-20.94,6.35-28.9.61-.54,1.17-1.09,1.69-1.66l.05-.04c.74-.42,1.53-.72,2.37-.9h.04s1.72.26,1.72.26c.61.45,1.28.82,1.98,1.12l.07.05c.51.55,1.05,1.09,1.61,1.61,4.76,6.69,9.56,17.58,7.52,26.36-1.74,7.48-8.22,11.87-13.58,11.87Zm-1.49-40.02c-.53.57-1.09,1.12-1.67,1.63-5.64,7.83-8.1,19.05-6.24,28.53h0c1.1,5.89,4.45,9.32,9.2,9.42.07,0,.14,0,.2,0,5.19,0,11.47-4.27,13.15-11.53,2-8.64-2.75-19.4-7.43-25.98-.52-.48-1.06-1.02-1.57-1.57-.7-.3-1.36-.67-1.97-1.12l-1.49-.21c-.77.17-1.5.45-2.18.83Z"/>
        <path class="cls-1" d="m26.39,150.54c-2.86,0-5.54-.75-7.98-2.25h-.01c-5.15-3.74-7.27-8.67-6.12-14.27,1.87-9.17,12.54-18.71,23.78-21.27,8.06-1.83,14.85.26,19.13,5.9.42.87.68,1.75.79,2.66-.81,9.43-10.01,21.66-20.08,26.73-3.3,1.66-6.49,2.49-9.5,2.49Zm-7.75-2.61c6.16,3.78,12.67,1.94,17.05-.27,9.96-5.02,19.04-17.08,19.85-26.34-.11-.82-.36-1.66-.73-2.44-4.15-5.46-10.78-7.5-18.67-5.7-11.09,2.52-21.61,11.91-23.45,20.94-1.11,5.42.95,10.2,5.95,13.82Z"/>
        <path class="cls-1" d="m161.56,116.42c-5.33,0-10.92-.61-16.05-2.33h-.03s-1.19-.64-1.19-.64l-.71-.66-1.22-2.18v-.07c.08-.82.2-1.64.38-2.43l.03-.06c.44-.72.84-1.47,1.21-2.23l.04-.06c.64-.63,1.19-1.34,1.64-2.11,4.79-5.21,29.45-30.58,47.06-22.72,7.12,3.18,10.4,7.4,9.74,12.53-1.26,9.76-17.26,20.16-27.03,21.77-3.96.65-8.79,1.2-13.85,1.2Zm-15.89-2.73c9.9,3.33,21.6,2.44,29.67,1.11,9.65-1.59,25.44-11.81,26.68-21.4.63-4.92-2.56-8.98-9.48-12.08-17.34-7.75-41.81,17.45-46.54,22.58-.43.76-1,1.49-1.65,2.14-.36.75-.76,1.49-1.19,2.2-.16.74-.28,1.51-.35,2.27l1.14,2.03.62.57,1.11.57Z"/>
        <path class="cls-1" d="m93.99,220.12c-3.95,0-7.62-2.21-10.56-6.45h0c-7.79-13.04-1-34.6,6.32-45.74.57-.56,1.08-1.13,1.56-1.73l.07-.06c.68-.33,1.34-.73,1.96-1.18l.05-.03,1.76-.19h.03c.81.18,1.58.48,2.29.88l.04.03c.52.52,1.07,1.02,1.64,1.48,6.42,7.84,12.63,21.73,12.12,33.16-.37,8.39-6.83,17.25-14.11,19.36-1.07.31-2.13.46-3.17.46Zm-10.2-6.68c4.6,6.63,9.74,6.82,13.25,5.81,7-2.02,13.44-10.88,13.8-18.96.5-11.32-5.66-25.09-12-32.83-.54-.44-1.09-.94-1.62-1.46-.65-.37-1.36-.64-2.11-.81l-1.58.17c-.61.44-1.26.83-1.94,1.16-.47.59-.99,1.16-1.53,1.69-7.22,11.01-13.97,32.36-6.28,45.23Z"/>
        <path class="cls-1" d="m24.88,153.99c-.72,0-1.44-.04-2.17-.12h-.01c-10.26-1.68-12.93-7.41-13.37-11.93-1.11-11.54,11.36-27.87,25.17-32.98,10.34-3.82,19.56-.92,25.95,8.19.35.88.56,1.75.66,2.64v.03s0,.03,0,.03c-.16.77-.25,1.56-.29,2.34v.07c-5.2,13.76-20.28,31.73-35.94,31.73Zm-2.12-.54c16.19,1.75,32.24-17.04,37.63-31.3.04-.79.14-1.57.29-2.34-.1-.84-.3-1.67-.6-2.45-6.25-8.88-15.29-11.74-25.43-7.98-13.66,5.05-25.99,21.17-24.89,32.54.6,6.26,5.1,10.25,13,11.54Z"/>
        <path class="cls-1" d="m156.12,118.92c-4.85,0-9.55-.31-13.93-.93-1.43-.18-2.84-.54-4.18-1.08l-.05-.03c-.55-.42-1.15-.77-1.8-1.04l-.08-.05-1.32-1.41v-.06c-.17-.84-.2-1.69-.08-2.54l.03-.08c.4-.7.77-1.47,1.05-2.24l.05-.07c.62-.64,1.15-1.36,1.59-2.11,5.24-5.72,32.33-33.88,52.86-29.92,5.7,1.1,10.14,4.34,12.49,9.12,2.38,4.85,2.22,10.66-.45,15.95-5.15,10.2-17.42,13.34-26.2,14.81-6.64,1.11-13.44,1.68-19.97,1.68Zm-17.92-2.4c1.3.52,2.66.87,4.05,1.04h0c10.24,1.45,22.23,1.19,33.77-.74,8.69-1.46,20.83-4.55,25.89-14.58,2.61-5.17,2.77-10.84.45-15.57-2.29-4.66-6.62-7.82-12.18-8.89-20.37-3.92-47.25,24.09-52.43,29.75-.42.74-.96,1.47-1.59,2.13-.28.76-.64,1.53-1.04,2.23-.1.76-.08,1.54.06,2.29l1.2,1.28c.66.27,1.28.63,1.84,1.06Z"/>
        <path class="cls-1" d="m93.11,223.39c-4.82,0-9.1-2.79-12.28-8.11h0c-4.53-8.67-3.48-19.96-1.79-27.91,1.95-9.2,5.87-19.16,10.5-26.65.54-.59,1.03-1.17,1.47-1.78.6-.57,1.24-1.03,1.92-1.4l.1-.03,2.76-.07.05.03c.67.35,1.32.77,1.91,1.25.49.61.99,1.14,1.52,1.62,7.23,9.81,14.48,26.59,14.39,39.73-.07,9.71-7.97,20.37-16.91,22.81-1.24.34-2.45.5-3.63.5Zm-11.91-8.32c3.86,6.44,9.33,9.06,15.43,7.4,8.78-2.4,16.53-12.86,16.59-22.4.09-13.05-7.12-29.71-14.28-39.43-.52-.47-1.04-1.02-1.51-1.61-.53-.41-1.13-.81-1.76-1.14l-2.59.07c-.64.35-1.23.78-1.76,1.28-.43.59-.92,1.19-1.45,1.76-8.29,13.43-16.49,39.12-8.67,54.08Z"/>
        <path class="cls-1" d="m24.16,156.66c-9.56,0-13.67-5.06-15.43-9.39-3.64-8.94-.08-22.52,7.78-29.64,7.56-6.86,19.65-11.04,30.09-10.39,7.47.46,13.64,3.29,17.86,8.18l.04.06c.36.85.67,1.73.94,2.62v.05s0,.05,0,.05c-.12.79-.2,1.59-.26,2.39l-.03.09c-.38.69-.68,1.43-.88,2.19l-.02.05c-12.48,21.5-25.62,32.84-39.04,33.72h0c-.35.01-.69.02-1.03.02Zm20.28-49.05c-9.81,0-20.67,4.02-27.65,10.34-7.73,7.01-11.24,20.36-7.67,29.15,1.77,4.36,5.98,9.48,16.04,9.11,13.27-.87,26.28-12.14,38.68-33.48.21-.78.51-1.52.89-2.22.05-.78.14-1.56.25-2.33-.26-.84-.56-1.68-.9-2.5-4.14-4.78-10.2-7.55-17.54-8.01-.7-.04-1.41-.06-2.12-.06Z"/>
        <path class="cls-1" d="m146.96,121.25c-6.48,0-12.81-.68-18.16-2.79l-.08-.03-.12-.08-.03-.05-1.34-2.49-.05-.29.02-.05c.29-.77.56-1.54.8-2.31l.04-.08c.58-.66,1.09-1.38,1.52-2.13l.06-.07c.74-.55,1.35-1.23,1.82-2.03l.04-.04c25.24-24.41,45.06-35.69,58.95-33.52,6.58,1.03,11.85,4.82,14.47,10.41,2.73,5.82,2.23,12.6-1.36,18.62-6.57,11.01-20.17,13.83-33.88,15.23-1.02.1-2.07.22-3.15.33-6.07.64-12.89,1.37-19.55,1.37Zm-18.04-3.2h.02c10.77,4.25,25.61,2.67,37.52,1.4,1.07-.11,2.12-.23,3.15-.33,13.6-1.39,27.08-4.18,33.56-15.02,3.52-5.89,4.01-12.53,1.34-18.21-2.56-5.46-7.72-9.16-14.15-10.17-13.73-2.14-33.44,9.08-58.57,33.38-.49.82-1.12,1.53-1.88,2.1-.43.76-.94,1.47-1.52,2.13-.23.74-.49,1.49-.77,2.23l.02.13,1.27,2.34Z"/>
        <path class="cls-1" d="m94.51,224.84c-6.85,0-13.79-3.27-16.47-10.28h0c-3.64-9.97-1.98-22.43.05-31.14,2.36-10.08,6.66-21.1,11.52-29.49.54-.59,1.01-1.19,1.4-1.82l.05-.05c.59-.47,1.18-.94,1.76-1.42l.11-.05h.07c.93.06,1.86.13,2.79.18l.1.03c.65.39,1.25.87,1.78,1.41,8.78,10.88,21.83,39.43,16.63,57.66-1.96,6.86-6.31,11.52-12.95,13.83-2.15.75-4.49,1.13-6.83,1.13Zm-16.07-10.43c3.5,9.18,14.54,11.76,22.76,8.89,6.5-2.27,10.76-6.83,12.68-13.55,5.16-18.09-7.82-46.45-16.53-57.25-.48-.49-1.03-.93-1.63-1.3-.89-.05-1.78-.12-2.67-.18-.54.44-1.11.9-1.68,1.35-.41.64-.88,1.25-1.41,1.81-7.93,13.7-18.09,42.21-11.51,60.22Z"/>
        <path class="cls-1" d="m24.96,158.96c-3.23,0-6.54-.81-9.9-2.66h0c-10.7-6.09-11.88-14.1-11-19.75,2.13-13.55,18.35-28.01,35.43-31.57,12.74-2.66,23.22,1.31,29.52,11.18l.03.08c.14.84.21,1.69.23,2.55l-.02.1c-.35.74-.65,1.51-.88,2.29l-.04.07c-.51.66-.97,1.37-1.36,2.11-1.25,1.59-2.6,3.38-4.04,5.28-9.44,12.52-22.85,30.32-37.97,30.32Zm-9.69-3.03c18.78,10.31,35.96-12.47,47.32-27.54,1.43-1.9,2.79-3.7,4.02-5.26.37-.72.84-1.45,1.36-2.11.23-.77.52-1.53.87-2.27-.02-.8-.09-1.61-.21-2.39-6.2-9.68-16.51-13.58-29.04-10.95-16.92,3.53-32.99,17.83-35.09,31.22-1.24,7.91,2.49,14.58,10.78,19.31Z"/>
        <path class="cls-1" d="m139.87,123.06c-5.68,0-11.25-.45-16.42-1.67l-.08-.04c-.55-.41-1.16-.7-1.81-.87l-.09-.05-1.01-.94.02-.11c.12-.79.15-1.6.08-2.39v-.08s1.1-1.4,1.1-1.4l.34-.87.05-.04c.71-.56,1.31-1.25,1.78-2.04l.06-.06c.77-.58,1.47-1.25,2.08-1.99.88-.78,1.78-1.57,2.73-2.41,16.06-14.21,42.97-37.99,63.22-34.21,6.9,1.29,12.3,5.55,14.82,11.71,2.72,6.65,1.73,14.38-2.67,20.67-8.12,11.64-24,13.31-34.52,14.42-1.63.17-3.29.36-4.98.54-7.89.88-16.41,1.82-24.69,1.82Zm-16.28-2.08c12.61,2.97,27.65,1.3,40.92-.17,1.69-.19,3.35-.37,4.99-.54,13.26-1.4,26.82-3.65,34.21-14.24,4.31-6.18,5.29-13.75,2.62-20.26-2.46-6.02-7.75-10.19-14.5-11.45-20.08-3.75-47.91,20.88-62.86,34.11-.95.84-1.85,1.64-2.71,2.39-.6.73-1.31,1.41-2.1,2-.48.8-1.09,1.5-1.82,2.08l-.34.84-1.02,1.29c.06.76.04,1.53-.07,2.29l.8.75c.68.18,1.31.48,1.88.9Z"/>
        <path class="cls-1" d="m97.78,226.98c-2.4,0-5.03-.31-7.9-.93-9.46-2.04-14.94-9.5-15.03-20.47h0c-.17-21.76,8.59-44.54,13.83-56.17.38-.67.77-1.38,1.12-2.08.51-.6.95-1.23,1.3-1.88l.05-.06,1.53-1.35.1-.17.5-.19.07.03c.77.28,1.58.46,2.39.55h.08s1.24,1.41,1.24,1.41l.36.23.03.05c.32.65.75,1.27,1.23,1.8,6.41,11.34,25.1,56.51,12.85,73.15-2.98,4.05-7.59,6.08-13.74,6.08Zm-22.49-21.4c.09,10.75,5.44,18.06,14.69,20.06,10.04,2.17,17.17.49,21.2-4.99,12.12-16.47-6.5-61.4-12.85-72.64-.47-.51-.9-1.14-1.24-1.8l-.33-.22-1.14-1.3c-.8-.1-1.58-.28-2.34-.54l-.2.07-.08.12-1.52,1.35c-.36.66-.81,1.31-1.31,1.88-.33.66-.72,1.38-1.1,2.03-5.21,11.59-13.95,34.3-13.78,55.98h0Z"/>
        <path class="cls-1" d="m24.09,160.16c-1.03,0-2.07-.06-3.14-.19h0c-6.95-1.12-12.4-5.2-15.33-11.48-3.49-7.47-2.9-17.07,1.51-24.46,7.48-12.55,24.03-20.53,40.26-19.4,9.85.68,18.36,4,23.98,9.35l.04.05c.49.85.97,1.7,1.45,2.55l.03.06v.06c-.06.84-.13,1.69-.23,2.5v.06s-.04.05-.04.05c-.55.72-1.06,1.48-1.5,2.26l-.05.06c-.73.57-1.36,1.25-1.87,2.01-3.22,3.23-6.38,7.16-9.72,11.31-9.53,11.86-20.26,25.2-35.38,25.2Zm-3.08-.62c16.58,1.98,28.02-12.28,38.13-24.86,3.35-4.17,6.51-8.1,9.72-11.32.5-.76,1.15-1.46,1.9-2.05.44-.77.93-1.52,1.48-2.23.09-.77.17-1.56.22-2.36-.46-.82-.93-1.65-1.4-2.46-5.54-5.26-13.95-8.53-23.69-9.21-16.06-1.11-32.46,6.77-39.86,19.19-4.33,7.27-4.92,16.71-1.49,24.06,2.87,6.15,8.2,10.14,15,11.24Z"/>
        <path class="cls-1" d="m128.86,124.44c-2.84,0-5.67-.07-8.49-.21h-.01c-.7-.07-1.39-.15-2.09-.23-.69-.15-1.36-.3-2.03-.44l-.09-.04-.27-.22-1.61-.7-1.06-1.88.91-1.07.36-1.27.73-.55,1.15-1.61c.82-.53,1.54-1.19,2.12-1.96l.05-.05c.81-.58,1.56-1.23,2.25-1.94,2.58-2.05,5.44-4.43,8.46-6.94,16.66-13.86,39.48-32.83,58.56-32.83h.01c7.74,0,14.7,3.65,18.61,9.76,3.89,6.07,4.29,13.56,1.08,20.55-6.56,14.32-23.24,17.2-38.35,18.77l-1.49.16c-12.76,1.33-25.88,2.7-38.8,2.7Zm-8.46-.64c15.59.81,31.67-.86,47.21-2.49l1.49-.16c14.99-1.56,31.53-4.41,38-18.53,3.14-6.85,2.76-14.19-1.05-20.13-3.84-5.98-10.66-9.55-18.25-9.56h-.01c-18.93,0-41.67,18.92-58.28,32.73-3.02,2.52-5.88,4.89-8.45,6.93-.67.7-1.44,1.37-2.26,1.95-.6.79-1.33,1.47-2.18,2.01l-1.13,1.59-.64.49-.38,1.26-.75.87.84,1.49,1.55.68.25.21c.65.14,1.31.28,1.97.42.67.08,1.36.15,2.06.22Z"/>
        <path class="cls-1" d="m94.08,227.72c-4.67,0-9.1-1.34-12.56-3.87-4.03-2.95-6.53-7.26-7.24-12.48h0c-2.6-20.81,5.55-45.16,14.74-68.37l.27-.4c.18-.63.39-1.22.64-1.8l.86-1.48.14-.64.72-.96.13-1.12.58-.46-.07-1.12.19-.4-.02-.2.83-1.42-.25-1.13.64-.64-.42-1.13.04-.08c.18-.34.27-.7.27-1.08v-.1s1.22-1.05,1.22-1.05l1.62.82.63.57-.04.13c-.21.7-.49,1.43-.81,2.11l-.02.58-.68,1.11.73,1.28-.13.37.07.23v.06s-.3,1.21-.3,1.21l.75.94-.03.62.68,1.28.04.23.12.11.36,1.5.49.69.99,2.1c7.59,16.09,25.35,53.77,15.53,72.7-3.05,5.89-8.56,9.56-16.38,10.93-1.46.25-2.91.38-4.34.38Zm-19.37-16.4c.69,5.1,3.13,9.31,7.06,12.18,4.43,3.24,10.46,4.49,16.57,3.42,7.67-1.34,13.08-4.94,16.07-10.7,9.72-18.74-7.98-56.28-15.53-72.32l-.97-2.06-.54-.77-.33-1.42-.12-.12-.06-.33-.7-1.29.03-.58-.78-.97.32-1.36-.08-.25.11-.32-.76-1.34.76-1.23.04-.59c.3-.63.56-1.3.77-1.96l-.4-.36-1.29-.65-.86.74c-.02.38-.11.74-.27,1.08l.45,1.21-.67.67.23,1.06-.84,1.44.02.18-.2.41.07,1.24-.62.49-.12,1.06-.76,1.01-.12.6-.87,1.49c-.24.55-.44,1.14-.62,1.76l-.03.06-.27.39c-9.15,23.11-17.28,47.4-14.69,68.11Z"/>
        <path class="cls-1" d="m24.64,161.53c-2.44,0-4.98-.4-7.64-1.26h-.01C.96,154.11-.44,144.33,1.22,137.21c1.86-8.03,8.77-16.9,18.47-23.74,9.73-6.86,20.65-10.49,29.18-9.71,10.33.94,19.54,4.65,25.92,10.46l.04.06c.46.83.98,1.64,1.54,2.4l.05.07v.09c-.14.85-.25,1.69-.34,2.49v.09s-.08.06-.08.06c-.84.66-1.61,1.43-2.26,2.27l-.06.06c-.92.52-1.79,1.2-2.51,1.98-4.41,3.52-8.69,8.67-13.22,14.11-9.3,11.19-19.66,23.64-33.33,23.64Zm-7.5-1.67c17.29,5.64,29.62-9.17,40.49-22.24,4.54-5.46,8.83-10.62,13.25-14.15.72-.78,1.61-1.49,2.56-2.02.65-.83,1.41-1.59,2.24-2.25.08-.76.19-1.54.3-2.33-.55-.75-1.06-1.54-1.5-2.35-6.32-5.73-15.42-9.4-25.65-10.33-8.44-.76-19.24,2.84-28.9,9.64-9.62,6.78-16.46,15.56-18.3,23.48-1.62,6.96-.24,16.52,15.5,22.55Z"/>
        <path class="cls-1" d="m94,228.58c-8.12,0-16.74-3.66-19.48-12.55h0c-5.99-20.92,4.4-49.93,11.99-71.12.89-2.48,1.74-4.87,2.53-7.13l.13-1.3.13-.3v-.59s.31-1,.31-1l-.05-.68.25-.95-.16-1.16.07-.52-.14-.67.11-1.14c-.19-1.39-.41-2.84-.65-4.25v-.08s1.12-1.81,1.12-1.81l.65-.42.26.06,2.03-.28c2.77.04,5.55.12,8.29.22l.37-.12,1.37.08.77-.42.79.06.78-.82.54-.11.28-.21,1.21-.37,1.01-1.14.24-.1.25-.22,1.19-.61.85-.98.45-.23c.39-.44.87-.8,1.41-1.05l.58-.64c.87-.53,1.68-1.16,2.4-1.88,3.35-2.47,7.33-5.68,11.55-9.07,19.08-15.36,45.22-36.38,64.9-33.16,8.19,1.34,14.32,6.37,16.82,13.79,2.77,8.2.47,17.81-5.84,24.48-9.59,10.13-24.5,11.34-37.66,12.41-1.44.12-2.87.23-4.26.36-2.89.26-5.79.54-8.7.82-13.63,1.3-27.72,2.65-41.49,2.2l-1.31-.14-.78.19-1.02-.15-1.14.48-.45-.1-.48.49-.96.11-.4.28-1.05.24-.68.99-.49.19-.62.8-.53.37-.19.37c-.9.89-1.5,1.98-1.8,3.23v.56s-.35.97-.35.97l.06.51v.03s-.21.97-.21.97l.32,1.01-.02.53.3.84.06.71.2.4c1.09,3.2,2.7,7.21,4.57,11.85,8.01,19.93,20.12,50.05,10.93,66.12-3.25,5.69-9,9.2-17.09,10.43-1.3.2-2.65.3-4,.3Zm-19.07-12.67c3.13,10.14,14.13,13.3,23.01,11.95,7.95-1.21,13.59-4.64,16.78-10.21,9.08-15.9-2.98-45.9-10.96-65.75-1.87-4.65-3.48-8.66-4.56-11.84l-.23-.49-.06-.72-.31-.84.02-.54-.33-1.05.22-1.05-.07-.54.37-1v-.54c.32-1.37.95-2.52,1.9-3.46l.18-.37.59-.42.63-.83.48-.18.7-1.01,1.17-.26.37-.29.93-.11.54-.56.55.13,1.12-.47,1.06.16.77-.19,1.37.14c13.74.45,27.81-.9,41.42-2.2,2.91-.28,5.81-.56,8.71-.82,1.4-.13,2.82-.24,4.27-.36,13.08-1.06,27.9-2.27,37.38-12.28,6.21-6.55,8.46-15.99,5.75-24.05-2.45-7.26-8.46-12.19-16.48-13.5-19.49-3.19-45.54,17.76-64.56,33.07-4.22,3.39-8.2,6.6-11.53,9.06-.71.72-1.54,1.37-2.43,1.91l-.61.66c-.51.23-.96.57-1.33.99l-.06.05-.44.23-.85.98-1.2.62-.27.23-.23.09-.97,1.13-1.29.4-.31.22-.46.09-.82.87-.86-.06-.77.42-1.41-.08-.37.12h-.04c-2.76-.11-5.54-.19-8.29-.23l-2.07.29-.16-.04-.46.29-.96,1.56c.24,1.4.46,2.82.64,4.24l-.1,1.12.15.68-.07.54.16,1.19-.25.97.05.68-.31,1.05-.02.63-.13.3-.12,1.25c-.8,2.32-1.66,4.7-2.54,7.18-7.57,21.13-17.93,50.06-11.98,70.84Z"/>
        <path class="cls-1" d="m24.37,162.29c-1.73,0-3.54-.18-5.42-.55h0c-7.65-1.86-13.29-6.87-15.87-14.12-3.12-8.73-1.33-19.41,4.55-27.18,9.96-13.17,27.79-19.81,45.44-16.91,9.15,1.5,17.89,5.33,24.6,10.79l.05.06c.51.84,1.16,1.57,1.93,2.17l.07.06.11,1.18.55,1.38-.14.1c-1.14.83-2.27,1.66-3.4,2.51l-.07.03c-1.35.39-2.59,1.06-3.66,1.97-6.15,3.79-11.33,10.03-16.82,16.65-8.95,10.78-18.17,21.88-31.91,21.88Zm-5.33-.97c16.58,3.31,26.91-9.14,36.91-21.18,5.51-6.64,10.72-12.91,16.9-16.72,1.08-.93,2.36-1.62,3.76-2.03,1.08-.81,2.15-1.6,3.24-2.39l-.45-1.16-.1-1.02c-.77-.61-1.42-1.35-1.94-2.19-6.65-5.4-15.31-9.19-24.37-10.68-17.5-2.87-35.17,3.7-45.03,16.75-5.79,7.67-7.56,18.18-4.49,26.78,2.53,7.1,8.06,12.01,15.56,13.84Z"/>
        <path class="cls-1" d="m93.2,229.37c-6.13,0-11.5-2.11-15.26-6.04-9.53-9.94-4.97-28.83-1.95-41.32.23-.95.45-1.87.66-2.75,1.46-6.2,3.27-12.47,5.02-18.53,2.46-8.53,5.01-17.36,6.63-26.14.06-1.06.1-2.18.1-3.3-.28-2.73-1.22-5.44-2.69-7.83-.28-.25-.6-.42-.96-.52l-.12-.03-.19-.71-.65.19-.77-.48-.4-.1c-2.56.07-5.11.67-7.38,1.73-7.62,3.42-13.86,10.98-19.9,18.28-9.96,12.05-20.27,24.5-37.41,20.29h-.01c-7.56-2.34-13.61-8.3-16.17-15.97-3.19-10.22-1.03-19.8,6.24-27.71,10.93-11.89,32.28-18.36,48.6-14.73,8.3,1.84,16.17,5.46,23.4,10.75l.74.84c.59.33,1.14.71,1.66,1.14l.04.05.85,1.26,1.44.62v.15s.12-.01.12-.01l1.02,1.13,1.52.05c.65.16,1.16.39,1.68.74l.74-.11.98.43c1.24.04,2.49.15,3.72.33,3.05.38,6.14.21,9.16-.5l1.56-.9c1-.4,1.94-.85,2.87-1.39.94-.61,1.9-1.25,2.84-1.91,3.78-2.72,8.33-6.33,13.14-10.15,20.04-15.9,47.47-37.67,67.7-34.98,8.11,1.08,14.48,5.87,17.48,13.12,3.2,7.73,1.86,16.86-3.48,23.84-9.39,12.27-25.74,13.63-40.16,14.82-1.79.15-3.56.3-5.28.46-7.05.68-14.26,1.22-21.22,1.75-10.41.79-21.17,1.61-31.63,2.87l-1.32.6c-1.11.26-2.16.73-3.07,1.38-.41.43-.88.87-1.39,1.27-.78,1.01-1.36,2.2-1.69,3.49l.1.74-.2.79c0,.29.08.56.23.83l.03.05-.03.74c1.51,5.23,4.09,11.58,6.82,18.29,8.47,20.85,19.01,46.8,7.66,62.79-4.05,5.71-11.47,9.61-19.38,10.19-.68.05-1.36.07-2.03.07Zm-8.23-106.8c.39.12.74.32,1.04.6l.04.05c1.52,2.45,2.48,5.23,2.77,8.06,0,1.15-.04,2.27-.11,3.37-1.62,8.83-4.17,17.66-6.64,26.21-1.75,6.05-3.56,12.31-5.02,18.51-.21.88-.43,1.79-.66,2.75-3,12.4-7.52,31.14,1.84,40.92,4.09,4.26,10.09,6.35,16.95,5.84,7.78-.57,15.08-4.41,19.06-10.01,11.21-15.8.72-41.62-7.71-62.38-2.74-6.74-5.33-13.11-6.84-18.37v-.03s.02-.7.02-.7c-.16-.32-.25-.65-.25-1v-.05s.19-.73.19-.73l-.1-.74v-.04c.35-1.37.96-2.62,1.83-3.73.53-.42.99-.85,1.41-1.29.99-.71,2.09-1.2,3.22-1.46l1.37-.61c10.49-1.27,21.26-2.09,31.68-2.88,6.97-.53,14.17-1.08,21.22-1.75,1.72-.16,3.49-.31,5.29-.46,14.33-1.19,30.58-2.54,39.86-14.66,5.25-6.86,6.56-15.83,3.42-23.42-2.94-7.11-9.19-11.8-17.14-12.86-20.03-2.68-47.4,19.04-67.38,34.89-4.82,3.82-9.37,7.43-13.16,10.17-.94.66-1.91,1.3-2.86,1.92-.95.55-1.9,1.01-2.91,1.41l-.21.11-1.4.81c-3.08.73-6.23.9-9.35.52-1.24-.19-2.49-.3-3.72-.33l-.08-.02-.91-.39-.79.11-.07-.05c-.51-.34-1-.56-1.58-.72l-1.66-.05-.99-1.1-.35.04-.02-.34-1.3-.56-.9-1.34c-.51-.42-1.04-.78-1.61-1.1l-.06-.05-.73-.84c-7.14-5.22-14.96-8.81-23.2-10.64-16.19-3.59-37.36,2.82-48.19,14.6-7.16,7.79-9.29,17.22-6.15,27.29,2.51,7.53,8.45,13.39,15.88,15.68,16.89,4.15,27.09-8.2,36.97-20.14,6.07-7.34,12.35-14.94,20.06-18.4,2.33-1.09,4.95-1.7,7.58-1.77h.03s.56.15.56.15l.64.4.89-.25.24.9Z"/>
        <path class="cls-1" d="m93.3,230.74c-5.13,0-10.15-2.09-14.67-6.21-12.09-11.01-5.58-34.22-1.27-49.58.61-2.18,1.19-4.24,1.66-6.07.26-1.02.66-2.42,1.11-4.04,3.29-11.7,10.12-36.04,3.17-41.13-2.61-1.91-7.04-.85-13.15,3.15-6.06,3.96-10.78,9.86-15.34,15.57-7.07,8.83-14.38,17.97-26.84,20.24-3.19.58-5.98.61-8.8.1h0c-8.12-1.78-14.11-6.93-16.86-14.5-3.34-9.19-1.43-20.37,4.85-28.48,10.87-14.02,30.12-20.49,49.03-16.5,9.64,2.04,19.03,6.49,27.92,13.24l.76.94.54.27,1.15.19c2.62,1.19,5.27,2.06,8.1,2.68,1.24-.04,2.51.01,3.81.15,15.83-1.61,29.5-13.25,42.73-24.51,13.29-11.31,27.03-23.01,43.3-25.12,8.07-1.04,15.99,1.55,21.2,6.92,4.77,4.93,6.76,11.61,5.59,18.8-3.12,19.17-23.51,23.86-38.57,25.71-22.27,2.75-40.06,4.41-56,5.22-.41.03-.83.06-1.26.1-6.26.46-14.06,1.04-15.07,8.35,1.86,9.01,5.37,18.05,8.75,26.79,4.52,11.66,9.19,23.72,10.15,36.05.9,11.66-6.32,24.33-16.8,29.45-3.03,1.48-6.11,2.22-9.15,2.22Zm-13.07-108.39c1.3,0,2.41.33,3.33,1,7.19,5.27.3,29.81-3.01,41.6-.45,1.62-.84,3.01-1.11,4.03-.47,1.84-1.05,3.9-1.66,6.08-4.28,15.26-10.75,38.32,1.15,49.14,7.07,6.44,15.36,7.83,23.34,3.93,10.34-5.05,17.46-17.54,16.56-29.03-.95-12.26-5.61-24.29-10.12-35.92-3.4-8.77-6.91-17.84-8.78-26.9v-.04s0-.04,0-.04c1.04-7.69,9.05-8.28,15.48-8.76.43-.03.85-.06,1.26-.1,15.94-.82,33.72-2.48,55.98-5.22,14.92-1.84,35.12-6.47,38.2-25.36,1.15-7.05-.8-13.6-5.47-18.43-5.11-5.28-12.9-7.82-20.84-6.8-16.15,2.09-29.84,13.75-43.08,25.02-13.28,11.3-27.01,22.99-43.01,24.62-1.33-.13-2.58-.18-3.85-.15-2.9-.62-5.56-1.51-8.21-2.7l-1.16-.2-.68-.36-.75-.94c-8.8-6.67-18.14-11.1-27.72-13.12-18.76-3.96-37.83,2.45-48.6,16.34-6.2,7.99-8.07,19.01-4.79,28.07,2.7,7.43,8.57,12.48,16.55,14.22,2.77.5,5.51.47,8.64-.11,12.31-2.24,19.57-11.32,26.59-20.09,4.59-5.73,9.33-11.66,15.44-15.66,4.21-2.76,7.67-4.14,10.32-4.14Z"/>
      </g>
      <g>
        <path class="cls-1" d="m82.66,102.83l-1.02-.58c-2.69-3.39-6.85-7.88-11.66-13.08-10.4-11.25-24.65-26.65-33.43-41.39-.79-1.32-1.52-2.62-2.2-3.89-3.85-6.05-6.56-12.34-6.72-18.58-.08-3.16.48-6.22,1.63-9.04,1.02-2.91,2.7-5.53,5.06-7.88C39.83,2.9,48.56.06,57.12.99h.12s.23.55.23.55l-.37-.04c-8.02-.87-16.19,1.72-21.85,6.94-2.46,2.26-4.33,4.94-5.54,7.87-2.56,7.23-.9,16.27,5.02,27.36,4.54,7.12,10.67,13.93,16.09,19.94,3.08,3.42,5.99,6.65,8.36,9.63l23.48,29.59Zm-45.33-54.6c8.79,14.5,22.74,29.58,32.97,40.64,1.9,2.05,3.69,3.99,5.33,5.79l-16.79-21.16c-2.36-2.97-5.26-6.19-8.34-9.61-4.32-4.8-9.1-10.1-13.17-15.67Zm-9.22-25.09c-.05.71-.06,1.42-.05,2.14.11,4.25,1.42,8.54,3.49,12.76-2.33-5.51-3.48-10.47-3.44-14.9Z"/>
        <path class="cls-1" d="m98.78,100.7c-.84,0-1.74-.17-2.67-.52-1.68-.63-2.96-2.11-3.94-4.09-5.81-7.95-7.36-27.91-8.51-42.8-.44-5.71-.82-10.63-1.36-13.85l-.24-1.41c-1.81-10.81-3.77-22.59-10.69-29.85-3.91-3.72-8.8-6.04-14.27-6.68h-.12s-.23-.55-.23-.55l.37.04c6.61.77,11.34,3.38,14.8,7.12,1.81,1.77,3.4,3.84,4.75,6.18,6.64,11.54,8.38,28.49,9.91,43.44.62,6.05,1.21,11.76,2.07,16.88.19,1.1.33,2.65.51,4.46.48,4.98,1.19,12.34,3.46,16.89.46.61.95,1.15,1.47,1.6,2.47,2.14,4.67,2.86,6.56,2.18,4.55-1.67,6.48-10.89,7.53-17.68l.43.05-.11.73c-.76,5.01-2.18,14.33-6.83,17.07-.88.52-1.85.78-2.88.78Zm-4.94-2.77c.69.86,1.49,1.51,2.42,1.85.39.15.78.26,1.15.34-1.13-.38-2.32-1.11-3.57-2.19ZM76.02,14.03c3.63,6.96,5.09,15.72,6.47,23.92l.23,1.41c.54,3.23.93,8.17,1.37,13.89,1.06,13.64,2.44,31.55,7.11,40.44-1.49-4.42-2.04-10.15-2.47-14.57-.17-1.8-.32-3.35-.5-4.43-.86-5.13-1.45-10.85-2.07-16.91-1.53-14.91-3.26-31.81-9.86-43.27-.09-.16-.19-.32-.28-.48Z"/>
        <path class="cls-1" d="m98.26,112.16c-4.41,0-8.84-1.83-12.53-5.14-.99-.86-1.93-1.86-2.82-3.01-.45-.57-.88-1.16-1.29-1.78l-.48-.73.86.5c.26.39.52.77.79,1.14,1.15,1.53,2.57,3.04,4.21,4.36,2.48,1.86,5.23,2.86,8.23,2.97.19,0,.38.01.57.01,8.02,0,17.11-6.06,25.97-14.39,4.12-4.7,8.07-9.86,11.68-14.57,3.2-4.17,6.22-8.11,8.77-10.95,2.36-2.62,5.06-5.32,7.92-8.18.88-.88,1.76-1.76,2.65-2.66,2.62-3.38,4.89-6.28,6.64-8.27l.69-.79c6.31-7.16,12.26-13.92,13.23-23.64l.06-.7.53-.69-.05.72c-.92,12.72-11,23.79-20.76,33.64-.62.8-1.26,1.63-1.92,2.48-7.68,9.97-18.18,23.59-29.08,33.85-6.63,7.56-13.69,13.95-20.51,15.45-1.11.24-2.23.36-3.35.36Zm-6.65-1.84c2.96,1.3,6.33,1.85,9.91,1.06,5.72-1.26,11.65-6.05,17.35-12.08-7.91,6.87-15.89,11.62-23.06,11.62-.2,0-.39,0-.58-.01-1.25-.05-2.45-.24-3.62-.58Zm59.11-47.89c-.09.09-.18.18-.26.26-2.86,2.86-5.55,5.56-7.9,8.16-2.54,2.83-5.56,6.76-8.75,10.93-2.74,3.58-5.68,7.41-8.74,11.11,9.63-9.69,18.76-21.52,25.66-30.47Zm17.25-20.69c-2.25,3.25-4.9,6.25-7.51,9.22l-.69.79c-1.21,1.38-2.67,3.19-4.32,5.29,4.65-4.8,9.17-9.89,12.53-15.3Z"/>
        <path class="cls-1" d="m108.6,82.16l-.42-.08c.58-3.02,1.17-6.91,1.84-11.42,1.68-11.23,3.93-26.24,8.06-39.55,2.19-9.68,5.52-18.99,12.92-24.63,1.89-1.89,3.95-3.43,6.2-4.53,6.8-3.32,14.89-2.4,24.02,2.76,8.27,4.67,13.13,12.97,12.67,21.66v.07s-.52.67-.52.67l.04-.7c.36-6.9-2.48-13.31-8-18.05-6.42-5.51-15.48-7.89-23.65-6.19-4.24.88-7.7,2.51-10.54,4.7-5.6,5.65-9.66,14.5-12.7,24.29-.75,3.28-1.36,6.61-1.96,9.86-.27,1.46-.54,2.9-.81,4.31l-7.14,36.84Zm8.32-45.5c-2.99,11.2-4.83,23.08-6.25,32.55l4.65-23.97c.27-1.41.54-2.84.81-4.3.26-1.41.53-2.84.8-4.28Zm11.6-27.39c-4.19,4.34-6.77,10.11-8.59,16.33,2.31-6.27,5.12-11.94,8.59-16.33ZM145.76.43c-2.98,0-5.77.63-8.37,1.9-1.36.66-2.64,1.49-3.87,2.46,2.34-1.36,5.04-2.4,8.15-3.05,4.66-.96,9.6-.63,14.19.84-3.56-1.43-6.94-2.15-10.1-2.15Z"/>
        <path class="cls-1" d="m97.5,111.85c-2.98,0-6.1-.86-9.37-2.85-10.63-6.46-20.24-20.67-28.72-33.2-3.65-5.4-7.11-10.51-10.39-14.65-1.42-1.79-3-3.65-4.67-5.62-9.71-11.45-21.78-25.69-14.72-40.69,2.74-5.82,8-10.26,14.82-12.51,7.38-2.44,15.54-1.87,21.84,1.51,13.71,7.36,15.77,24.87,17.59,40.33.41,3.49.8,6.78,1.31,9.81.22,1.28.45,3.38.74,6.04,1.38,12.49,3.95,35.73,11.49,39.21,1.68.78,3.57.48,5.59-.89,7.36-4.99,9.89-28.88,11.56-44.69.56-5.32,1.05-9.91,1.6-12.74l.1-.49c3.26-16.83,6.96-35.9,26.83-38.99,8.12-1.26,16.98,1.4,23.12,6.95,5.31,4.8,8.04,11.19,7.68,17.99h0c-.28,3.92-1.46,7.77-3.7,12.14-6.17,12.03-17.12,22.92-27.71,33.44-4.48,4.46-8.72,8.67-12.5,12.87-1.79,1.98-3.65,4.32-5.63,6.79-7.39,9.24-16.18,20.24-26.84,20.24ZM53.76,1.25c-3.07,0-6.19.49-9.19,1.48-6.7,2.21-11.87,6.58-14.56,12.29-6.94,14.75,5.04,28.88,14.66,40.23,1.67,1.97,3.25,3.84,4.68,5.63,3.3,4.15,6.75,9.27,10.41,14.68,8.45,12.5,18.03,26.66,28.58,33.07,14.7,8.94,26.32-5.61,35.66-17.29,1.98-2.48,3.85-4.82,5.64-6.81,3.8-4.21,8.03-8.43,12.52-12.89,10.56-10.5,21.49-21.36,27.63-33.33,2.21-4.31,3.37-8.12,3.65-11.97.35-6.67-2.33-12.94-7.54-17.65-6.05-5.46-14.78-8.08-22.76-6.84-19.58,3.04-23.25,21.95-26.48,38.64l-.09.49c-.55,2.81-1.03,7.4-1.59,12.71-1.78,16.84-4.22,39.9-11.75,45-2.16,1.46-4.19,1.77-6.02.93-7.76-3.58-10.35-26.99-11.74-39.56-.29-2.66-.53-4.75-.74-6.02-.51-3.04-.9-6.34-1.31-9.83-1.81-15.35-3.85-32.75-17.36-40-3.65-1.96-7.93-2.95-12.32-2.95Z"/>
        <path class="cls-1" d="m97.98,112.11c-12.74,0-23.45-15.89-32.07-28.66-2.35-3.49-4.58-6.79-6.54-9.25-2.41-3.04-5.39-6.34-8.54-9.83-10.55-11.69-22.5-24.93-23.17-38.47-.33-6.67,2.21-12.93,7.13-17.62C40.4,2.94,48.45.23,56.35.99c20.26,1.98,23.5,21.23,26.1,36.7.62,3.67,1.02,8.95,1.48,15.06,1.18,15.6,2.8,36.96,9.67,44.04,2.25,2.31,4.35,3.17,6.26,2.55,7.39-2.4,10.77-25.91,12.39-37.2.34-2.34.6-4.19.82-5.34.61-3.13,1.1-6.5,1.63-10.08,2.3-15.66,4.9-33.41,18.28-41.57,6.4-3.9,14.8-4.93,22.47-2.76,7.16,2.03,12.82,6.5,15.92,12.58,1.75,3.43,2.58,7.07,2.49,10.82h0c-.63,14.51-13.4,27.2-24.67,38.39-3.06,3.04-5.95,5.91-8.42,8.65-2.25,2.5-4.96,6.02-7.83,9.75-9.57,12.44-22.68,29.48-34.9,29.52h-.06ZM53.69,1.3c-6.91,0-13.7,2.63-18.59,7.29-4.84,4.61-7.32,10.75-7,17.29.66,13.39,12.56,26.57,23.05,38.21,3.16,3.5,6.14,6.8,8.56,9.85,1.97,2.48,4.2,5.78,6.56,9.28,8.56,12.68,19.2,28.47,31.71,28.47h.06c12-.04,25.04-16.99,34.56-29.36,2.87-3.73,5.58-7.26,7.85-9.77,2.47-2.75,5.37-5.62,8.44-8.67,11.21-11.13,23.92-23.75,24.54-38.1.09-3.68-.73-7.25-2.44-10.61-3.05-5.98-8.61-10.37-15.65-12.36-7.57-2.14-15.83-1.13-22.12,2.71-13.2,8.05-15.79,25.7-18.08,41.26-.53,3.58-1.02,6.96-1.63,10.1-.22,1.13-.48,2.98-.82,5.32-1.76,12.26-5.04,35.07-12.68,37.55-2.07.68-4.33-.22-6.7-2.66-6.98-7.18-8.54-27.77-9.79-44.3-.46-6.1-.86-11.37-1.48-15.02-2.58-15.33-5.78-34.4-25.72-36.35-.87-.08-1.74-.13-2.62-.13Z"/>
        <path class="cls-1" d="m136.02,53.43h0l-2.26-.04-.05-.03c-.63-.41-1.26-.82-1.89-1.24l-.07-.08c-.4-.75-.82-1.5-1.26-2.25l-.02-.06c-1.86-7.69.99-23.89,8.6-29.67,3.53-2.69,7.6-2.78,12.08-.29,4.15,2.31,6.06,5.66,5.68,9.95-.82,9.33-13.07,21.18-20.32,23.69h-.07s-.41.02-.41.02Zm-2.14-.47l2.13.03h.37c7.16-2.5,19.19-14.15,20-23.31.36-4.11-1.48-7.31-5.46-9.53-4.32-2.4-8.22-2.32-11.61.25-7.22,5.49-10.27,21.58-8.45,29.2.42.73.83,1.46,1.22,2.19.59.39,1.19.79,1.79,1.17Z"/>
        <path class="cls-1" d="m63.66,51.28l-1.3-.29c-6.24-2.21-16.59-13.13-17.08-21.91-.23-4.05,1.62-7.05,5.48-8.92,3.65-1.77,6.92-1.63,9.74.4,6.75,4.88,8.75,18.94,7.92,25.11-.31.96-.6,1.91-.88,2.85l-.04.08c-.51.6-1,1.23-1.46,1.87l-.04.05-.06.02c-.72.29-1.48.53-2.24.72h-.05Zm-1.17-.69l1.16.26c.7-.18,1.4-.4,2.07-.67.44-.62.92-1.23,1.41-1.81.27-.93.56-1.87.86-2.78.78-5.88-1.24-19.96-7.76-24.67-2.68-1.94-5.81-2.06-9.3-.37-3.69,1.79-5.45,4.65-5.23,8.51.48,8.62,10.65,19.35,16.78,21.53Z"/>
        <path class="cls-1" d="m130.87,62.54h-.05c-.78-.17-1.56-.34-2.32-.53h-.06s-.04-.06-.04-.06c-.54-.54-1.09-1.07-1.65-1.59l-.05-.08c-.31-.82-.67-1.66-1.06-2.48-2.79-14.05.5-36.69,13.88-42.79,9.49-4.32,14.42-1.56,16.89,1.53,5.06,6.33,3.94,19.66-2.36,27.96-4.4,5.81-13.26,15.87-23.14,18.03h-.04Zm-2.21-.92c.73.17,1.47.34,2.2.49,9.73-2.15,18.49-12.11,22.85-17.86,6.19-8.17,7.32-21.24,2.37-27.43-2.37-2.96-7.14-5.61-16.38-1.4-13.18,6-16.4,28.4-13.66,42.26.37.77.73,1.6,1.04,2.42.53.5,1.06,1.01,1.58,1.52Z"/>
        <path class="cls-1" d="m67.38,61.29l-.05-.02c-11.1-3.52-26.45-20.13-26.95-32.29-.47-11.32,5.16-14,8.55-14.58,8.54-1.48,19.49,6.31,22.51,16.04,2.59,8.3,3.09,18.4,1.32,26.35-.39.82-.75,1.62-1.1,2.44l-.05.08c-.56.51-1.11,1.03-1.66,1.55l-.05.05h-.06c-.81.14-1.62.27-2.43.38h-.05ZM51.02,14.66c-.68,0-1.35.05-2.01.17-5.62.97-8.53,5.99-8.19,14.14.49,11.99,15.63,28.37,26.6,31.88.77-.11,1.54-.23,2.3-.35.52-.49,1.05-.99,1.58-1.47.34-.81.7-1.61,1.07-2.37,1.74-7.83,1.23-17.85-1.33-26.09-2.68-8.62-12.14-15.91-20.02-15.91Z"/>
        <path class="cls-1" d="m126.29,69.9l-.05-.02c-.7-.29-1.4-.59-2.09-.89l-.06-.03-.04-.05c-.43-.68-.9-1.33-1.39-1.96l-.04-.08-.18-.7c-4.01-15-.36-48.06,17.38-54.93,5.09-1.97,10.79-1.74,15.64.64,4.34,2.13,7.47,5.79,8.82,10.3,3.26,10.94-5.88,21.33-11.34,27.54-7,7.96-14.71,15.86-23.69,19.77l-.05.02c-.94.14-1.9.28-2.85.39h-.06Zm-1.91-1.28c.65.29,1.31.57,1.97.84.92-.11,1.84-.24,2.75-.38,8.89-3.88,16.55-11.74,23.52-19.65,5.4-6.14,14.44-16.42,11.25-27.13-1.31-4.4-4.36-7.96-8.59-10.03-4.67-2.29-10.38-2.52-15.3-.62-17.52,6.78-21.09,39.55-17.11,54.41h0s.16.66.16.66c.47.6.93,1.24,1.35,1.9Z"/>
        <path class="cls-1" d="m72.7,69.36h-.06c-.94-.02-1.89-.1-2.82-.24h-.05c-1.74-.75-3.38-1.68-4.87-2.8h0c-3.49-2.65-33.95-26.47-27.33-45.33,3.62-10.31,9.37-12.16,13.58-11.89,10.15.65,21.6,14.12,23.85,24.7,2.87,13.47,3.2,23.96,1.01,32.08l-.03.06c-.42.7-.84,1.42-1.23,2.15l-.03.05-.05.03c-.62.4-1.27.79-1.93,1.16l-.05.03Zm-2.79-.66c.88.13,1.79.21,2.68.23.62-.35,1.23-.72,1.81-1.09.38-.71.79-1.42,1.2-2.1,2.16-8.05,1.83-18.46-1.02-31.85-2.22-10.43-13.49-23.72-23.46-24.36-5.82-.37-10.35,3.64-13.15,11.6-6.52,18.56,23.71,42.2,27.18,44.84h0c1.46,1.09,3.06,2.01,4.75,2.72Z"/>
        <path class="cls-1" d="m122.21,76.41l-.06-.04c-.6-.44-1.22-.86-1.84-1.27l-.06-.04-.03-.06c-.31-.79-.69-1.58-1.12-2.35l-.02-.06c-1.84-9.47-1.42-23.02,1.08-34.51,2.21-10.16,6.96-23.32,17.07-28.37,5.95-2.97,13.12-3.06,19.19-.25,5.42,2.51,9.17,6.99,10.54,12.6,2.71,11.07-5.43,20.5-11.97,28.07l-.59.68c-7.98,9.25-17.92,20.77-29.37,25.47l-.07.02c-.88.05-1.78.09-2.68.1h-.07Zm-1.6-1.63c.59.38,1.17.79,1.74,1.2.85-.02,1.71-.05,2.55-.1,11.35-4.68,21.23-16.13,29.18-25.34l.59-.68c6.47-7.5,14.53-16.83,11.88-27.69-1.34-5.48-5-9.85-10.3-12.31-5.95-2.76-12.98-2.67-18.81.24-9.95,4.97-14.65,18.01-16.84,28.08-2.48,11.42-2.91,24.88-1.08,34.3.42.75.78,1.52,1.1,2.3Z"/>
        <path class="cls-1" d="m74.76,76.72l-.05-.02c-3.88-1.28-7.55-3.68-10.63-6.95l-.28-.26c-5.96-5.56-15.94-14.86-22.59-24.8-8.05-12.04-9.27-22.05-3.62-29.77,5.28-7.21,11.08-10.12,17.25-8.66,11.29,2.68,20.87,20.08,22.76,31.38,1.85,11.04,3.53,22.75,1.97,33.76-.34.92-.62,1.82-.85,2.72l-.05.09c-.52.56-1,1.18-1.42,1.83l-.04.06-.07.02c-.76.24-1.54.43-2.32.57h-.05ZM51.79,6.33c-4.9,0-9.54,2.96-13.85,8.85-5.53,7.56-4.31,17.41,3.63,29.28,6.63,9.9,16.58,19.18,22.53,24.73l.29.27c3.01,3.2,6.61,5.56,10.4,6.82.72-.13,1.44-.3,2.14-.52.42-.63.88-1.23,1.39-1.78.23-.9.51-1.8.84-2.67,1.54-10.91-.13-22.57-1.98-33.59-1.87-11.18-11.32-28.4-22.44-31.04-1-.24-1.98-.35-2.96-.35Z"/>
        <path class="cls-1" d="m121.1,82.59h-.05c-.84-.04-1.69-.1-2.52-.19h-.08s-.98-1.14-.98-1.14l-.67-.69v-.06c-.23-.94-.5-1.87-.83-2.78v-.05c-1.64-17.1.55-56.21,17.73-68,6.02-4.13,14.22-5.23,21.39-2.86,6.47,2.14,11.18,6.67,13.27,12.77,4.49,13.06-5.74,24.31-13.97,33.35l-1,1.1c-1.27,1.4-2.56,2.86-3.92,4.39-8.18,9.24-17.45,19.72-28.33,24.15l-.04.02Zm-2.43-.61c.77.08,1.57.14,2.36.18,10.77-4.4,19.99-14.82,28.13-24.02,1.36-1.54,2.65-2.99,3.92-4.4l1-1.1c8.15-8.95,18.28-20.09,13.88-32.92-2.05-5.97-6.67-10.4-13-12.5-7.04-2.33-15.09-1.25-21.01,2.81-17.01,11.67-19.17,50.55-17.55,67.58.32.89.59,1.82.81,2.74l.6.61.88,1.01Z"/>
        <path class="cls-1" d="m79.26,83.47h-.1c-.97-.11-1.95-.25-2.92-.44l-.07-.03c-5.92-3.48-10.7-8.45-15.48-13.67h0c-1.36-1.53-2.98-3.26-4.7-5.09-13.16-14.04-33.05-35.25-19.26-51.63,6.54-7.77,13.08-10.79,19.46-8.98,13.23,3.76,22.02,27.67,23.78,39.64.15,1.02.3,2.05.46,3.08,1.65,10.96,3.35,22.3,1.69,33.02l-.02.06c-.39.8-.72,1.63-.96,2.48l-.02.08-.07.04c-.61.4-1.19.86-1.74,1.35l-.07.06Zm-2.9-.85c.91.18,1.84.31,2.75.41.52-.47,1.08-.9,1.65-1.28.25-.83.57-1.66.95-2.44,1.64-10.65-.06-21.94-1.7-32.86-.16-1.04-.31-2.07-.46-3.09-1.75-11.87-10.44-35.59-23.47-39.29-6.2-1.76-12.59,1.22-19.02,8.84-13.54,16.08,6.19,37.13,19.25,51.06,1.71,1.83,3.33,3.56,4.7,5.09,4.75,5.18,9.49,10.11,15.35,13.56Z"/>
        <path class="cls-1" d="m117.36,88.63h-.06c-.76-.16-1.53-.34-2.3-.55l-.1-.03-.04-.1c-.32-.78-.71-1.53-1.18-2.23l-.03-.05v-.06c-.06-1.09-.22-2.19-.46-3.26-.13-23.49,2.55-64.42,21.93-75.21,6.78-3.78,15.56-4.05,22.9-.72,6.61,3,11.04,8.35,12.47,15.05,2.84,13.28-7.93,24.6-16.59,33.7-1.09,1.14-2.15,2.26-3.15,3.34-1.79,1.94-3.62,4.02-5.55,6.22-8.05,9.19-17.19,19.6-27.78,23.88l-.06.02Zm-2.15-.94c.7.19,1.41.35,2.1.49,10.48-4.26,19.55-14.61,27.56-23.74,1.93-2.2,3.76-4.29,5.56-6.23,1-1.08,2.06-2.2,3.15-3.34,8.59-9.02,19.27-20.25,16.48-33.31-1.4-6.56-5.74-11.8-12.23-14.74-7.23-3.28-15.85-3.01-22.52.71-8.57,4.77-14.73,16.18-18.3,33.91-2.93,14.53-3.47,30.25-3.41,40.88.24,1.03.39,2.13.46,3.23.45.68.83,1.41,1.14,2.16Z"/>
        <path class="cls-1" d="m80.8,90.1l-.06-.03c-7.38-3.73-13.31-10.71-18.55-16.88-.5-.59-1-1.17-1.49-1.75-1.43-1.65-3.17-3.56-5.01-5.57-10.5-11.5-26.36-28.87-25.01-43.54.5-5.4,3.32-10.07,8.39-13.9,7.78-5.87,14.87-7.56,21.05-5.03,14.85,6.07,20.14,34.18,21.41,42.65l.44,2.95c1.74,11.49,3.53,23.36,3.08,35.01-.27,1.07-.44,2.12-.49,3.18v.06s-.04.05-.04.05c-.48.68-.87,1.42-1.14,2.21l-.04.11-.11.03c-.77.19-1.57.34-2.37.44h-.07ZM54.32,2.69c-4.6,0-9.62,2.03-14.99,6.08-4.96,3.75-7.73,8.32-8.22,13.59-1.34,14.49,14.45,31.77,24.9,43.21,1.84,2.02,3.59,3.93,5.02,5.58h0c.49.58.99,1.16,1.49,1.75,5.45,6.41,11.09,13.05,18.36,16.74.72-.1,1.45-.23,2.15-.4.28-.77.65-1.49,1.12-2.16.06-1.07.22-2.13.49-3.16.45-11.56-1.35-23.42-3.08-34.88l-.44-2.95c-1.26-8.41-6.51-36.33-21.15-42.31-1.8-.74-3.68-1.1-5.64-1.1Z"/>
        <path class="cls-1" d="m113.63,94.8l-2.31-.91v-.13c-.1-1.06-.31-2.12-.63-3.13v-.07c.15-24.06,2.89-66.59,19.4-81.11,6.53-5.75,16.07-7.81,24.9-5.38,7.82,2.15,13.67,7.56,16.02,14.85,4.6,14.22-6.73,26.3-15.83,36-1.09,1.16-2.15,2.29-3.16,3.4-1.46,1.61-2.93,3.23-4.4,4.85-9.44,10.45-19.21,21.26-30.41,29.86-1.22.54-2.38,1.11-3.5,1.72l-.09.05Zm-1.9-1.21l1.87.74c1.11-.59,2.25-1.15,3.4-1.66,11.12-8.55,20.88-19.34,30.31-29.78,1.47-1.63,2.93-3.25,4.4-4.85,1.01-1.1,2.07-2.24,3.16-3.4,9.02-9.62,20.26-21.59,15.73-35.57-2.31-7.15-8.04-12.46-15.73-14.57-8.69-2.39-18.08-.36-24.5,5.29-16.37,14.4-19.1,56.76-19.26,80.75.31.99.52,2.02.62,3.06Z"/>
        <path class="cls-1" d="m85.42,97.61l-.12-.07c-1.19-.73-2.44-1.43-3.7-2.08-8.48-7.21-15.63-15.91-22.55-24.32-1.44-1.74-3.21-3.75-5.08-5.88-10.68-12.16-26.82-30.53-24.3-45.22.99-5.77,4.82-10.55,11.37-14.21C49.28,1.21,56.5.36,62.49,3.28c14.38,7.01,18.57,33.94,20.57,46.89,1.93,12.4,3.98,27.1,4.62,42.08v.03s0,.03,0,.03c-.27,1.25-.34,2.52-.21,3.79v.13s-.09.07-.09.07c-.61.41-1.23.82-1.84,1.24l-.11.08ZM54.99,2.02c-4.16,0-8.75,1.4-13.74,4.18-6.43,3.6-10.18,8.27-11.15,13.91-2.49,14.49,13.57,32.77,24.2,44.86,1.87,2.13,3.64,4.15,5.09,5.89h0c6.9,8.4,14.04,17.09,22.45,24.24,1.18.61,2.39,1.29,3.56,2,.54-.37,1.08-.73,1.62-1.09-.11-1.26-.04-2.52.23-3.76-.64-14.95-2.69-29.63-4.61-42.01-2-12.87-6.16-39.66-20.34-46.56-2.26-1.1-4.7-1.65-7.31-1.65Z"/>
        <path class="cls-1" d="m96.56,108.1h-.03c-.65-.21-1.33-.29-2-.24h-.05s-.05-.02-.05-.02c-.71-.31-1.45-.5-2.23-.55h-.06s-.05-.04-.05-.04c-.84-.6-1.71-1.05-2.68-1.38l-.07-.04c-9.04-7.22-16.62-16.64-23.96-25.75-1.59-1.98-3.24-4.03-4.86-6h0c-1.46-1.77-3.28-3.87-5.21-6.08-11.84-13.61-29.72-34.18-26.22-49.73,1.37-6.08,5.98-10.88,13.72-14.26,8.47-3.7,15.74-3.93,21.6-.68,13.6,7.54,17.18,32.04,19.55,48.25.23,1.58.45,3.09.67,4.49.6,3.9.96,8.21,1.34,12.77.9,10.8,1.92,23.04,6.71,31.45l.69.58.28.54.89.46.27.32.37.11.74.85.96.18.44.25c.97.11,1.96.17,2.94.17h.06l.29-.1,1.28-.02.73-.67.61.08.24-.57.91-.29.73-1.25.09-.06.63-1.19.14-.2.68-1.42c3.27-9.28,4.3-21.02,5.39-33.45,1.86-21.18,3.79-43.09,17.13-55.38,6.56-6.04,16.32-8.38,25.47-6.11,8.16,2.03,14.36,7.46,17,14.92,5.26,14.88-6.76,27.57-16.43,37.76-1.44,1.52-2.8,2.95-4.07,4.35l-1.55,1.7c-11.4,12.58-23.19,25.59-35.95,37.18-1.5.89-2.81,1.97-3.92,3.25l-.08.06-1.17.5-.56.68-.57.34-1.05,1.29h-.05s-.03.01-.03.01l-1.44.52-1.12,1.16-.19.07c-.76.12-1.51.33-2.21.62-1.58.35-3.09.53-4.67.57h-.04Zm-1.63-.68c.57,0,1.14.08,1.69.25,1.54-.04,3.02-.22,4.52-.55.69-.29,1.45-.51,2.23-.63.02-.01.04-.02.06-.03l1.16-1.17,1.37-.5.02-.08h.13s.99-1.21.99-1.21l.57-.34.6-.7,1.17-.5c1.14-1.3,2.47-2.4,3.96-3.28,12.71-11.55,24.49-24.55,35.88-37.12l1.54-1.7c1.28-1.41,2.64-2.84,4.08-4.36,9.58-10.11,21.51-22.69,16.33-37.32-2.59-7.31-8.67-12.65-16.69-14.64-9.02-2.24-18.62.07-25.08,6.01-13.22,12.18-15.14,34-17,55.1-1.1,12.46-2.13,24.23-5.42,33.58l-.67,1.45v.08s-.22.21-.22.21l-.66,1.22-.09.06-.73,1.28-.88.28-.29.69-.73-.09-.7.64-1.41.02-.29.1c-1.04,0-2.1-.05-3.14-.17l-.08-.03-.44-.25-1-.17-.76-.87-.37-.12-.32-.39-.91-.44-.32-.63-.68-.57c-4.86-8.49-5.88-20.8-6.79-31.66-.38-4.55-.74-8.86-1.34-12.74-.22-1.4-.44-2.91-.67-4.49-2.36-16.13-5.93-40.5-19.34-47.94-5.74-3.18-12.88-2.95-21.22.7-7.6,3.32-12.14,8.02-13.47,13.96-3.45,15.34,14.35,35.81,26.13,49.35,1.93,2.22,3.75,4.31,5.21,6.09h0c1.62,1.97,3.27,4.02,4.87,6,7.31,9.08,14.87,18.47,23.86,25.66.97.34,1.86.79,2.71,1.39.79.06,1.55.25,2.27.56.13,0,.25-.01.38-.01Z"/>
        <path class="cls-1" d="m97.94,109.31c-.65,0-1.31-.04-1.96-.12-11.78-1.44-21.63-15.12-30.32-27.2-2.46-3.41-4.78-6.64-6.99-9.35h0c-1.32-1.64-2.92-3.54-4.62-5.55-11.73-13.89-29.45-34.89-25.29-50.26,1.69-6.22,6.93-10.94,15.6-14.01C52.74-.14,59.88.09,65.57,3.51c12.92,7.77,16.23,30.15,18.66,46.5.32,2.17.62,4.22.93,6.11.56,3.46.93,7.39,1.32,11.55,1.06,11.4,2.26,24.31,8.06,32.18l1.11.62c.44.3,1.04.64,1.41.84,1.11.31,2.28.36,3.44.14.44-.31.91-.51,1.42-.61l.26-.26c.4-.19.76-.43,1.09-.72,5.43-7.26,7.54-22.57,9.77-38.79,3.15-22.83,6.72-48.71,20.7-57.26,6.1-3.73,13.57-3.97,22.84-.72,8.91,3.12,14.1,8.27,15.41,15.32,5.27,28.41-53.9,79.56-60.67,85.3-4.39,3.73-8.88,5.61-13.37,5.61Zm-38.93-36.94c2.22,2.72,4.54,5.95,7,9.37,8.64,12,18.43,25.6,30.03,27.02,5.08.62,9.99-1.14,14.99-5.39,6.75-5.72,65.75-56.72,60.52-84.89-1.28-6.89-6.37-11.93-15.12-14.99-9.14-3.2-16.49-2.97-22.47.68-13.81,8.44-17.36,34.21-20.5,56.95-2.24,16.27-4.36,31.64-9.88,39.02-.37.34-.76.6-1.18.8l-.26.29h-.07c-.49.1-.94.29-1.36.59l-.08.04c-1.25.25-2.5.2-3.73-.15-.41-.21-1.02-.56-1.48-.87l-1.2-.7c-5.89-7.95-7.1-20.96-8.17-32.43-.39-4.16-.75-8.08-1.31-11.52-.31-1.89-.61-3.94-.94-6.12-2.41-16.26-5.71-38.53-18.45-46.19-5.58-3.35-12.59-3.57-20.84-.64-8.53,3.02-13.68,7.64-15.33,13.72-4.1,15.14,13.53,36.04,25.2,49.87,1.7,2.01,3.3,3.91,4.63,5.55h0Z"/>
        <path class="cls-1" d="m97.94,109.84c-.11,0-.21,0-.32,0-9.06-.21-16.85-9.05-26.86-21.53-1.9-2.37-3.79-4.75-5.68-7.14-2.01-2.54-4.02-5.07-6.05-7.59h0c-.62-.79-1.31-1.65-2.05-2.59-11.19-14.05-34.48-43.3-27.36-59.28,2.85-6.4,10.36-10.01,22.33-10.74,28.23-1.71,31.93,33.02,34.62,58.39.53,5,1.03,9.72,1.67,13.56.16.94.33,2.17.52,3.59,1.05,7.68,3,21.97,8.47,23.7,2.05.65,4.5-.54,7.27-3.54,4.86-5.27,6.19-18.31,7.26-28.79.41-3.97.79-7.72,1.31-10.43.66-3.4,1.18-7.01,1.73-10.83,1.61-11.22,3.43-23.93,9.54-32.83,5.27-7.69,14.44-12.39,24.06-12.39.24,0,.48,0,.72,0,8.98.22,16.74,4.57,21.29,11.94,12.55,20.36-15.29,47.22-33.72,64.99-4.01,3.87-7.47,7.2-10.05,10.02-2.52,2.74-4.98,5.41-7.47,7.99-8.1,9.2-14.85,13.5-21.21,13.5Zm-38.58-36.53c2.03,2.52,4.04,5.06,6.05,7.6,1.89,2.38,3.78,4.77,5.68,7.14,9.94,12.38,17.66,21.16,26.54,21.37.1,0,.21,0,.31,0,6.22,0,12.87-4.26,20.89-13.36,2.48-2.58,4.95-5.25,7.47-7.99,2.59-2.82,6.06-6.16,10.07-10.03,18.33-17.68,46.02-44.39,33.65-64.46-4.47-7.24-12.1-11.52-20.93-11.74-.24,0-.47,0-.71,0-9.48,0-18.51,4.63-23.7,12.2-6.05,8.82-7.87,21.48-9.47,32.65-.55,3.83-1.07,7.45-1.73,10.85-.52,2.69-.9,6.44-1.31,10.4-1.08,10.55-2.42,23.67-7.37,29.04-2.89,3.13-5.48,4.36-7.71,3.66-5.73-1.8-7.63-15.73-8.77-24.05-.19-1.42-.36-2.64-.52-3.58-.65-3.85-1.15-8.58-1.68-13.59-2.6-24.59-6.15-58.06-32.23-58.06-.63,0-1.27.02-1.93.06-11.79.71-19.18,4.24-21.96,10.48-7.01,15.74,16.17,44.85,27.31,58.84.74.93,1.43,1.8,2.05,2.59Z"/>
      </g>
      <g>
        <path class="cls-1" d="m134.65,176.07c-3.11-5.01-6.36-9.85-9.58-14.48-.63-.75-1.39-1.61-2.19-2.53-4.59-5.25-10.88-12.45-10.13-15.59.34-1.43,1.12-2.52,2.32-3.25,2.04-1.25,5.08-1.33,8.21-.95,2.38.16,5.12.87,7.46,1.47.24.06.48.12.72.19.82.2,1.54.37,2.16.5h.06s.64.6.64.6l-.77-.16c-.66-.14-1.41-.32-2.2-.53-.1-.02-.19-.05-.29-.07-2.27-.55-5.08-1.24-7.81-1.57-.96-.07-1.86-.04-2.65.13-3.87.81-5.92,1.85-6.45,3.27-.7,1.85,1.26,4.45,3.73,7.74.64.85,1.31,1.74,1.99,2.68,1.82,2.53,3.68,5.14,5.54,7.83.67.8,1.22,1.47,1.56,1.97,2.85,4.17,5.54,8.48,8.05,12.55l-.37.23Zm-14.58-36.58c-1.85.02-3.52.32-4.78,1.09-1.1.67-1.81,1.67-2.12,2.99-.67,2.8,5.22,9.69,9.47,14.57-1.05-1.48-2.09-2.94-3.12-4.38-.68-.94-1.34-1.82-1.98-2.68-2.65-3.53-4.57-6.07-3.79-8.15.57-1.51,2.58-2.6,6.33-3.44Z"/>
        <path class="cls-1" d="m161.16,195.31c-.91,0-1.83-.07-2.77-.21-3.11-.48-6.1-1.69-8.88-3.37-2.79-1.26-5.36-2.96-7.46-5.03-2.92-2.88-5.2-6.82-7.21-10.3l-.21-.37s0,0,0,0l.37-.22h0c3.37,5.83,8.83,12,15.05,15.69,6.29,2.74,13.66,3.27,19.36.96.45-.18.88-.38,1.29-.59.93-.62,1.84-1.34,2.73-2.16,3.43-3.15,5.42-7.45,5.61-12.11l.04-.8.47.39v.1c-.16,6.94-3.21,12.19-8.62,14.95-3.05,2.04-6.32,3.07-9.77,3.07Zm-8.04-2.23c1.75.77,3.54,1.31,5.34,1.59,3.28.5,6.41.1,9.36-1.2-4.5,1.32-9.78,1.11-14.7-.39Zm-14.06-10.68c1.01,1.44,2.1,2.81,3.3,3.99,1.16,1.15,2.47,2.18,3.88,3.08-2.69-2.08-5.11-4.54-7.18-7.07Z"/>
        <path class="cls-1" d="m179.53,177.74l-.47-.39v-.1c.04-1.55-.08-3.03-.33-4.46-.43-2.19-1.22-4.39-2.37-6.65-.23-.44-.46-.88-.72-1.31-5.69-9.21-17.47-15.26-27.88-19.01-3.18-1.15-6.6-2.17-10.23-3.06-1.3-.31-2.63-.61-3.99-.89h-.06s-.62-.58-.62-.58l.75.14c1.37.29,2.71.59,4.03.92,19.54,4.66,32.41,12.11,38.32,22.2,1.55,2.5,2.66,5.23,3.19,8.21.3,1.52.42,3.03.39,4.55v.44Z"/>
        <path class="cls-1" d="m160.28,194.58c-4.83,0-9.77-1.38-13.79-4.06-7.05-4.72-11.8-12.91-16.39-20.83-2.17-3.74-4.22-7.28-6.47-10.4-.95-1.32-1.96-2.65-2.94-3.93-3.97-5.22-7.72-10.14-6.19-13.01,1.06-1.98,4.56-2.76,10.69-2.38,19.24,1.19,54.93,13.36,54.35,37.33h0c-.15,6.68-3.36,11.98-9.02,14.92-3.05,1.59-6.61,2.36-10.24,2.36Zm-37.93-54.28c-4.2,0-6.65.74-7.46,2.25-1.4,2.62,2.27,7.44,6.15,12.54.98,1.29,1.99,2.62,2.95,3.94,2.26,3.14,4.32,6.69,6.49,10.44,4.56,7.88,9.28,16.02,16.25,20.69,6.9,4.61,16.6,5.3,23.59,1.68,5.52-2.87,8.64-8.04,8.79-14.55h0c.58-23.68-34.85-35.71-53.94-36.89-1.01-.06-1.96-.09-2.82-.09Z"/>
        <path class="cls-1" d="m159.91,194.68c-2.99,0-6.01-.56-8.81-1.7-9.17-3.73-14.45-12.74-19.56-21.45-1.67-2.84-3.24-5.52-4.93-8-1.28-1.87-3.01-3.9-4.85-6.04-4.37-5.12-8.9-10.41-7.59-14.13.69-1.95,2.87-3.24,6.68-3.96,11.03-2.06,30.24,6.86,35.85,9.65,15.2,7.53,22.86,16.89,22.78,27.82-.03,6-2.71,11.08-7.55,14.32-3.43,2.29-7.7,3.48-12.03,3.48Zm-35.42-55.14c-1.25,0-2.44.09-3.55.3-3.65.68-5.72,1.88-6.36,3.67-1.23,3.49,3.21,8.68,7.51,13.7,1.84,2.16,3.58,4.19,4.87,6.08,1.7,2.48,3.28,5.17,4.94,8.02,5.07,8.65,10.32,17.59,19.35,21.26,6.75,2.75,14.77,2.07,20.44-1.73,4.72-3.16,7.33-8.12,7.36-13.97h0c.08-10.75-7.5-19.97-22.54-27.43-5.02-2.49-20.94-9.91-32.03-9.91Z"/>
        <path class="cls-1" d="m159.3,181.62c-6.37,0-15.15-8.75-17.23-13.69-1.56-2.83-1.69-5.89-.38-8.63l.03-.06.06-.03c4.11-2.27,11-1.17,16.75,2.66,4.96,3.31,7.53,7.65,7.06,11.9-.52,4.73-2.33,7.34-5.37,7.78-.3.04-.6.06-.91.06Zm-17.26-22.07c-1.22,2.6-1.07,5.5.41,8.18v.02c2.38,5.65,11.85,14.23,17.7,13.37,2.82-.41,4.51-2.9,5.01-7.4.45-4.09-2.05-8.28-6.88-11.5-5.51-3.67-12.32-4.79-16.24-2.68Z"/>
        <path class="cls-1" d="m159.09,185.51c-2.4,0-5.16-.73-8.16-2.21-6.29-3.1-10.55-10.93-13.2-16.55-3.2-5.12-3.65-8.78-1.33-10.88,4.51-4.08,18.36-.49,24.14,4,7.78,6.03,9.46,16.22,6.09,21.6-1.67,2.68-4.28,4.03-7.55,4.03Zm-16.45-30.97c-2.52,0-4.66.49-5.95,1.66-2.11,1.91-1.62,5.49,1.42,10.34v.02c2.64,5.56,6.84,13.32,13.02,16.36,6.86,3.38,12.38,2.77,15.15-1.67,3.27-5.23,1.61-15.15-5.99-21.04-3.88-3.01-11.78-5.68-17.65-5.68Z"/>
        <path class="cls-1" d="m160.69,188.38c-2.01,0-4.43-.38-7.34-1.31-7.98-2.56-12.97-10.77-17.03-18.27-5.51-9.49-4.15-13.97-2.03-16.06,4-3.96,14.34-2.57,24.05,3.21,9.25,5.52,15.03,19.23,11.44,27.17-1,2.22-3.41,5.26-9.09,5.26Zm-19.4-37.48c-2.88,0-5.24.7-6.7,2.14-2.88,2.84-2.15,8.22,2.1,15.54h0c4.02,7.43,8.96,15.56,16.78,18.07,8.01,2.57,13.67,1.25,15.91-3.71,3.51-7.77-2.18-21.2-11.27-26.62-5.93-3.54-12.09-5.42-16.82-5.42Z"/>
        <path class="cls-1" d="m161.66,190.34c-1.91,0-4.13-.26-6.73-.86-9.92-2.29-15.65-12.34-20.26-20.41l-.09-.16c-.46-.78-.95-1.59-1.45-2.41-3.01-4.93-6.42-10.53-4.95-14.65.72-2,2.47-3.47,5.36-4.47,6.36-2.21,18.3,3.43,23.14,5.96,10.75,5.61,18.87,21.72,15.52,30.77-1.13,3.06-3.91,6.23-10.55,6.23Zm-24.69-43.04c-1.2,0-2.3.15-3.28.49-2.76.96-4.42,2.34-5.09,4.21-1.41,3.93,1.95,9.43,4.91,14.28.5.82.99,1.63,1.45,2.41h0s.09.16.09.16c4.56,8,10.24,17.95,19.98,20.2,11.34,2.62,15.38-1.33,16.78-5.1,3.22-8.71-4.94-24.82-15.32-30.24-4.04-2.11-13.08-6.42-19.53-6.42Z"/>
        <path class="cls-1" d="m159.46,191.47c-1.27,0-2.56-.12-3.85-.38-10.58-2.08-16.39-11.97-21.51-20.71-.31-.52-.61-1.04-.91-1.55-.71-1.19-1.52-2.43-2.38-3.74-3.39-5.18-7.23-11.05-5.74-15.31.71-2.02,2.49-3.48,5.46-4.47,6.67-2.21,18.96,3.11,25.68,6.48,11.29,5.65,17.8,12.39,19.35,20.03,1.16,5.69-.31,11.11-4.04,14.87-3.07,3.09-7.4,4.77-12.06,4.77Zm-25.25-46.26c-1.3,0-2.51.16-3.56.51-2.84.94-4.53,2.32-5.19,4.2-1.41,4.06,2.36,9.83,5.7,14.93.86,1.32,1.67,2.56,2.39,3.76h0c.3.51.61,1.03.91,1.55,5.08,8.65,10.83,18.46,21.22,20.5,5.91,1.16,11.71-.44,15.52-4.27,3.63-3.65,5.06-8.93,3.93-14.48-1.53-7.5-7.96-14.14-19.13-19.73-5.59-2.8-15.05-6.97-21.8-6.97Z"/>
        <path class="cls-1" d="m161.04,192.82c-2.09,0-4.36-.31-6.76-.95-9.77-2.58-15.2-11.6-20-19.56l-.03-.05c-1.16-1.92-2.44-3.84-3.8-5.88-4.09-6.14-8.33-12.49-9.62-19.23v-.03s0-.03,0-.03c.07-.7.36-1.34.84-1.85l.06-.05c12.64-6.11,35.27,4.2,44.4,11.68,8.6,7.05,12.2,20.18,7.86,28.67-2.44,4.77-7,7.28-12.94,7.28Zm-39.79-45.72c1.29,6.64,5.49,12.95,9.55,19.04,1.36,2.04,2.65,3.97,3.81,5.89h0s.03.05.03.05c4.75,7.89,10.14,16.84,19.74,19.37,12.33,3.26,17.33-2.43,19.21-6.12,4.25-8.32.71-21.21-7.75-28.14-9.04-7.42-31.43-17.64-43.9-11.65-.39.43-.63.96-.7,1.54Z"/>
        <path class="cls-1" d="m161.32,193.66c-1.75,0-3.71-.2-5.9-.65-10.75-2.23-16.65-12.03-21.39-19.9-1.52-2.47-3.26-4.94-5.1-7.57-4.47-6.38-9.09-12.99-10.92-19.89v-.06c0-.43.1-.84.29-1.21l.63-.82.05-.02c13.33-5.54,36.41,3.91,47.27,12.56,8.97,7.14,13.04,20.68,8.88,29.55-1.52,3.24-5.21,8.02-13.81,8.02Zm-42.88-48.09c1.82,6.82,6.41,13.38,10.85,19.72,1.84,2.63,3.58,5.11,5.11,7.59h0c4.7,7.81,10.54,17.52,21.11,19.71,9.34,1.94,16.17-.6,19.23-7.13,4.08-8.71.07-22.01-8.76-29.03-10.76-8.57-33.6-17.94-46.79-12.52l-.53.69c-.13.27-.21.61-.22.97Z"/>
        <path class="cls-1" d="m161.58,194.31c-1.8,0-3.82-.2-6.07-.66-10.91-2.21-16.52-11.45-21.94-20.39l-.13-.22c-1.95-3.12-4.22-6.3-6.41-9.37-4.26-5.96-8.66-12.13-11.33-18.62l-.02-.05c-.05-.39-.04-.78.03-1.16v-.06s.06-.05.06-.05c9.64-9.94,40.86,4.51,49.91,11.31,9.73,7.32,14.37,21.5,10.12,30.97-1.5,3.35-5.25,8.31-14.22,8.31Zm-45.47-49.4c2.64,6.44,7.03,12.58,11.27,18.51,2.2,3.08,4.47,6.26,6.43,9.39h0s.13.22.13.22c5.37,8.86,10.93,18.03,21.65,20.2,9.74,1.97,16.78-.66,19.81-7.41,4.1-9.14-.56-23.36-9.98-30.44-8.96-6.73-39.77-21.07-49.29-11.4-.05.31-.06.62-.02.94Z"/>
        <path class="cls-1" d="m159.71,194.66c-13.28,0-20.62-11.86-27.15-22.41l-.08-.13c-.78-1.25-2.45-3.41-4.38-5.91-6.33-8.22-15.9-20.64-13.19-24.64,4.29-6.32,29.44,2.79,34.43,4.68,8.95,3.39,21.48,9.09,26.95,19.52,3.34,6.36,3.56,13.57.59,19.29-2.7,5.22-7.69,8.56-14.04,9.4-1.08.14-2.12.21-3.13.21Zm-38.35-54.87c-2.87,0-5.11.57-6.09,2.02-2.54,3.75,7.29,16.51,13.17,24.14,2.02,2.62,3.61,4.68,4.4,5.95h0s.08.14.08.14c6.96,11.24,14.87,23.98,29.86,22,6.21-.82,11.07-4.08,13.71-9.17,2.9-5.6,2.68-12.66-.59-18.9-5.4-10.29-17.83-15.95-26.72-19.31-2.32-.88-18.48-6.86-27.83-6.86Z"/>
        <path class="cls-1" d="m159.92,195.14c-9.23,0-17.88-6.85-26.23-20.72-1.28-2.05-3.87-5.14-6.88-8.71-5.99-7.12-12.78-15.2-13.02-19.54-.12-2.2.55-3.89,1.98-5.01,5.33-4.14,19.93.44,26.94,2.65l1.1.35c11.01,3.42,36.41,20.02,37.03,34.52.26,6.24-4.06,11.21-12.86,14.8-2.74,1.12-5.43,1.68-8.07,1.68Zm-37.55-55.24c-2.61,0-4.85.45-6.33,1.59-1.32,1.03-1.93,2.59-1.82,4.64.23,4.2,7.27,12.57,12.92,19.29,3.02,3.59,5.62,6.68,6.92,8.76h0c10.61,17.63,21.66,23.8,33.77,18.87,8.61-3.5,12.84-8.34,12.59-14.38-.61-14.32-25.81-30.73-36.73-34.13l-1.1-.35c-4.95-1.56-13.73-4.31-20.22-4.31Z"/>
      </g>
    </g>
  </g>
</svg>