<?xml version="1.0" encoding="utf-8"?>
<!-- Generator: Adobe Illustrator 27.2.0, SVG Export Plug-In . SVG Version: 6.00 Build 0)  -->
<svg version="1.1" id="Livello_1" xmlns="http://www.w3.org/2000/svg" xmlns:xlink="http://www.w3.org/1999/xlink" x="0px" y="0px"
	 viewBox="0 0 220 123" style="enable-background:new 0 0 220 123;" xml:space="preserve">
<style type="text/css">
	.st0{fill:#1D1D1D;}
</style>
<path class="st0" d="M27.6,1c15.3,0,22,7.5,22,21.7c0,10.5-4.4,18.3-14.9,18.3c-6,0-10.1-2.4-14.8-8.6l-8-10.5c-1.7-2.2-5-2.4-7.2,0
	c-1.9,2.1-1.5,5.2,0.3,7.2l8.6,9.6c2.9,3.3,4,5.9,4,9.3c0,4.9-3,7-8.4,7C4.4,55.1,0,53.5,0,44.7V14.6C0,6.8,4.3,1,13.3,1H27.6z
	 M12.7,18.6l24.2,12.3c7,3.6,11-0.9,7.3-6.1L33.6,9.6c-2.5-3.6-3.8-3.9-7.5-2.4l-12.9,5.3c-1.8,0.8-2.9,1.5-2.9,2.9
	C10.3,16.7,11,17.7,12.7,18.6L12.7,18.6z"/>
<path class="st0" d="M82.2,37.8c4-0.1,6.6-0.8,7-4.4l3-24.7C92.8,4.9,90.9,2.4,88,3c-2.9,0.6-5.4,5.9-6.5,8L73,28.3
	c-2.2,4.6-6.1,5.5-8.7,5.5c-4.1,0-7.5-3.4-7.5-7.7c0-3,2.1-5.7,5.3-8.3l14-11.2C82.2,1.8,84.8,0,89.3,0c4.2,0,7,3,8,7.7l6.3,33.6
	c1.5,7.8-0.9,13.8-8.1,13.8c-5.7,0-8.4-3.6-8.4-7.9v-3.6c0-3.8-2-4.3-4.5-2.2l-6.8,5.9c-3.2,2.7-8.4,7.9-14.1,7.9
	c-4,0-8.6-2.3-8.6-8.9c0-5.6,5-7.9,11.2-8L82.2,37.8L82.2,37.8z"/>
<path class="st0" d="M153.5,55.1c-2.8,0-6.5-1.3-10.3-6l-17.2-20.9c-1.5-2-2.2-3.4-2.2-4.4c0.1-1.8,1.5-2.3,4-2l21.2,2.7
	c7.5,1,9.9-2.4,9.9-6c0-3.4-2.7-6.1-7.7-6.1h-21.8c-7.2,0-11.1,4.3-11.1,9.2c0,1.3,0.3,2.7,0.9,4l7.1,16.7
	c2.7,6.4,1.9,12.6-6.1,12.6c-4.3,0-9.1-3.4-9.1-13.3C111,18.1,121,0,142.2,0c17.2,0,21.3,10.9,21.3,17.2c0,4.7-1.7,9-11.6,12.5
	l-11.4,4c-1.7,0.6-3,1.4-3,3.1s1.1,2.2,3.8,2.2l13.7,0.1c4.6,0.1,8.1,2.9,8.1,7.3C163.1,50.6,160.7,55.1,153.5,55.1L153.5,55.1z"/>
<path class="st0" d="M198.2,37.8c4-0.1,6.6-0.8,7-4.4l3-24.7c0.5-3.8-1.4-6.3-4.3-5.7c-2.9,0.6-5.4,5.9-6.5,8L189,28.3
	c-2.2,4.6-6.1,5.5-8.7,5.5c-4.1,0-7.5-3.4-7.5-7.7c0-3,2.1-5.7,5.3-8.3l14-11.2c6.1-4.8,8.6-6.6,13.1-6.6c4.2,0,7,3,8,7.7l6.3,33.6
	c1.5,7.8-0.9,13.8-8.1,13.8c-5.7,0-8.4-3.6-8.4-7.9v-3.6c0-3.8-2-4.3-4.5-2.2l-6.8,5.9c-3.2,2.7-8.4,7.9-14.1,7.9
	c-4,0-8.6-2.3-8.6-8.9c0-5.6,5-7.9,11.2-8L198.2,37.8L198.2,37.8z"/>
<path class="st0" d="M12.8,105.9c0-3.8,1.5-8.3,5.7-8.3c3.4,0,5.4,2.9,5.4,5.8v11.9c0,3.4,2.1,5.1,6.3,3.1l24.4-11.8
	c2.9-1.4,5.4-2.5,4.7-5.1c-0.7-2.6-2.9-2.9-5.2-1.8l-14.8,6.8c-6.6,3.1-11.2-1.4-11.3-6.4L28,97.4c-0.1-2.6-1.2-2.9-4-3.6l-4.4-1
	c-2.9-0.7-4.7-3.5-4.7-6.3c0-12.1,12.4-18.8,24.7-18.8c12.3,0,24,5.2,24,17.7c0,5-1.9,8.4-6,8.4c-2.7,0-6.8-2.7-3.1-8.3l3.1-4.6
	c0.8-1.3,0.6-2.5-0.1-3c-1.1-0.8-2.6-0.7-4.9-0.2l-30.1,6.5c-3,0.6-3.7,2-3.5,3.4c0.2,1.5,1.1,2.2,3.4,2.6l35.5,6.4
	c4,0.7,5.9,3.5,5.9,6.8c0,9.7-12.6,19.5-28.6,19.5C19.3,122.9,12.8,114,12.8,105.9L12.8,105.9z"/>
<path class="st0" d="M74.1,79.3l7.9-9.1c1.5-1.7,3.5-2.4,5.5-2.4c3.6,0,7,2.4,7,6.6c0,3.9-2.4,5.7-5.7,6.9L81.1,84
	c-0.9,0.3-1.3,0.9-1.3,1.6c0,1.2,1.2,1.2,1.8,1.1l4.7-0.6c7-0.8,9.4,5.1,4.8,10.4l-13.3,15.2c-1.1,1.3-1.5,1.8-1.5,2.5
	c0,1.4,1.2,2.6,2.5,2l8.4-3.6c2.9-1.3,6.3-0.8,6.8,3.2c0.5,4.7-5.1,7-10.5,7c-8,0-11.7-5.3-9.8-12.3L79.4,90
	c0.1-0.5,0.2-0.9,0.2-1.3c0-1.6-1.3-2.2-3.5-2.2h-3c-1.7,0-2.3-1-2.3-2.2C70.8,83.2,72.3,81.4,74.1,79.3L74.1,79.3z"/>
<path class="st0" d="M124.7,77.3c1.4-4,0.7-5.6-1.2-5.6c-0.6,0-1.4,0.3-2.1,1.1l-7.8,8.7c-6.4,7.1-16.7,3.1-16.7-5
	c0-3.6,2.3-7.7,9.6-7.7h23.9c12.6,0,20.3,7,20.3,16.7c0,4.3-3.4,8.2-7.8,8.3c-6.3,0.2-8.4-4.4-8.4-14v-3.1c0-3.1-0.7-5.4-3.1-5.4
	c-1.9,0-2.7,1.8-2.7,6.2l-0.8,34.1c-0.1,7.4-1.5,11.2-8.2,11.2c-7.5,0-9-5.4-6.1-13L124.7,77.3L124.7,77.3z"/>
<path class="st0" d="M167.5,76.3c-4.1-0.3-5.9,1.5-5.9,3.5s1.6,3.4,5.9,4l25,3.1c5.3,0.6,7.1,3.8,7.1,7.2c0,2.6-1,5.9-7.1,7.8
	l-27.2,8.7c-3.3,1-3.8,2.4-3.8,4.2c0,1.5,1.9,4.4,5.3,3.2l28.5-10c6-2.1,9.1-0.4,9.3,3.8c0.2,4-1.7,6.2-5.4,8
	c-4,1.9-14.5,3.5-23.9,3.4c-9.3,0-17.7-2.1-17.7-9.1c0-2.6,1.7-5.1,4.9-7.3l20.8-14.4c2.8-2,1.4-4.5-1.8-3.2l-14,5.7
	c-6.8,2.8-12.8-0.6-12.8-6.9c0-12.7,15.2-19.9,33.1-19.9c12.5,0,16.7,2.9,16.7,7.3c0,2.2-1.2,4.3-6.4,3.8L167.5,76.3z"/>
</svg>
